<svg xmlns="http://www.w3.org/2000/svg" width="156" height="45" fill="none"><path fill="#212121" d="M154.904 39.81c0 2.398-1.983 4.34-4.436 4.34H5.307c-2.452 0-4.442-1.942-4.442-4.34V5.195c0-2.397 1.99-4.346 4.442-4.346h145.16c2.454 0 4.436 1.949 4.436 4.346z"/><path fill="#fff" d="M150 .901c2.671 0 4.845 2.12 4.845 4.724v33.75c0 2.604-2.174 4.724-4.845 4.724H5.77c-2.672 0-4.845-2.12-4.845-4.724V5.625C.925 3.021 3.098.901 5.769.901zM150 0H5.77C2.597 0 0 2.533 0 5.625v33.75C0 42.467 2.598 45 5.77 45H150c3.172 0 5.769-2.533 5.769-5.625V5.625C155.769 2.533 153.172 0 150 0"/><path fill="#fff" d="M34.763 22.257c-.034-3.626 3.045-5.39 3.185-5.472-1.743-2.479-4.445-2.817-5.395-2.844-2.27-.233-4.471 1.324-5.627 1.324-1.18 0-2.96-1.302-4.879-1.264-2.469.038-4.779 1.431-6.046 3.596-2.615 4.413-.665 10.899 1.84 14.466 1.253 1.747 2.718 3.698 4.634 3.63 1.875-.076 2.576-1.166 4.838-1.166 2.242 0 2.9 1.166 4.855 1.122 2.012-.032 3.279-1.755 4.488-3.518 1.448-2.003 2.03-3.975 2.053-4.076-.048-.016-3.908-1.452-3.946-5.798M31.07 11.594c1.009-1.23 1.699-2.902 1.507-4.6-1.46.063-3.285.984-4.336 2.187-.93 1.06-1.76 2.797-1.546 4.43 1.64.12 3.323-.806 4.375-2.017M61.898 35.442h-2.62l-1.435-4.398h-4.99l-1.367 4.397h-2.551l4.943-14.971h3.053zm-4.488-6.243-1.298-3.91q-.206-.6-.775-2.82h-.046q-.226.956-.729 2.82l-1.275 3.91zM74.61 29.91q0 2.755-1.527 4.353-1.368 1.423-3.395 1.422-2.187 0-3.144-1.532h-.046v5.687h-2.46V28.2q0-1.733-.091-3.555h2.163l.138 1.712h.046q1.23-1.934 3.736-1.933 1.96 0 3.269 1.51 1.31 1.512 1.31 3.976m-2.507.088q0-1.576-.729-2.599-.798-1.065-2.141-1.066-.912.002-1.651.588a2.72 2.72 0 0 0-.969 1.545 3 3 0 0 0-.114.731v1.8q0 1.177.741 1.99.74.81 1.925.81 1.389 0 2.163-1.044.775-1.044.775-2.755M87.345 29.91q0 2.755-1.528 4.353-1.366 1.423-3.393 1.422-2.188 0-3.143-1.532h-.047v5.687h-2.46V28.2q0-1.733-.09-3.555h2.163l.137 1.712h.046q1.229-1.934 3.736-1.933 1.958 0 3.27 1.51 1.308 1.512 1.309 3.976m-2.506.088q0-1.576-.73-2.599c-.533-.71-1.244-1.066-2.141-1.066q-.912.002-1.652.588a2.72 2.72 0 0 0-.967 1.545q-.114.445-.115.731v1.8q0 1.177.739 1.99.74.81 1.927.81 1.39 0 2.163-1.044.776-1.044.776-2.755M101.584 31.243q0 1.91-1.364 3.11-1.499 1.31-4.183 1.31-2.477 0-3.98-.933l.57-1.999a6.9 6.9 0 0 0 3.557.956q1.389 0 2.165-.611.774-.613.773-1.636 0-.912-.638-1.535-.635-.622-2.118-1.157-4.033-1.468-4.032-4.293 0-1.847 1.414-3.025 1.409-1.18 3.76-1.18 2.094 0 3.484.712l-.615 1.955q-1.297-.69-2.94-.689-1.297 0-2.025.622-.615.555-.615 1.356 0 .888.705 1.466.614.532 2.234 1.155 1.98.778 2.915 1.82.933 1.041.933 2.596M109.717 26.446h-2.711v5.242q-.001 2 1.435 1.999.66 0 1.093-.111l.068 1.82q-.728.266-1.913.266-1.457 0-2.279-.866-.82-.867-.82-2.91v-5.442h-1.616v-1.8h1.616v-1.976l2.416-.712v2.688h2.711zM121.951 29.955q0 2.488-1.458 4.087-1.528 1.644-4.057 1.643-2.437 0-3.883-1.576t-1.447-3.976q-.001-2.51 1.492-4.108 1.491-1.6 4.02-1.6 2.438 0 3.919 1.578 1.414 1.53 1.414 3.952m-2.552.077q.001-1.494-.66-2.561-.775-1.292-2.209-1.292-1.482 0-2.255 1.292-.661 1.068-.66 2.606-.001 1.494.66 2.56.797 1.293 2.234 1.292 1.41 0 2.208-1.314.68-1.089.682-2.583M129.947 26.755a4.4 4.4 0 0 0-.775-.066q-1.299 0-2.005.956-.615.843-.615 2.132v5.664h-2.459l.023-7.396q0-1.866-.093-3.398h2.143l.09 2.065h.068q.39-1.066 1.23-1.71a3.03 3.03 0 0 1 1.778-.578q.342.001.615.044zM140.949 29.533q.001.645-.09 1.088h-7.38q.043 1.6 1.071 2.444.933.755 2.414.755 1.64 0 2.986-.51l.386 1.664q-1.572.668-3.712.667-2.575 0-4.046-1.477-1.468-1.477-1.469-3.964 0-2.443 1.369-4.065 1.433-1.731 3.871-1.731 2.394 0 3.624 1.731.976 1.377.976 3.398m-2.345-.622q.023-1.067-.478-1.844-.64-1-1.96-1-1.208 0-1.959.977-.614.778-.728 1.865h5.125zM56.597 11.26q0 1.986-1.221 2.99-1.132.928-3.211.928-1.031 0-1.77-.088V7.855a13.4 13.4 0 0 1 2.083-.153q1.982 0 2.989.84 1.129.951 1.13 2.718m-1.276.033q0-1.287-.699-1.976-.699-.686-2.043-.687-.57 0-.974.077v5.5q.223.032.817.032 1.388 0 2.143-.752.756-.753.757-2.194M63.357 12.416q0 1.223-.717 2.008-.75.809-1.992.808-1.198 0-1.909-.775-.71-.775-.71-1.953 0-1.232.733-2.018.734-.785 1.976-.786 1.197 0 1.925.774.694.754.694 1.942m-1.254.038q0-.734-.325-1.258-.38-.635-1.084-.635-.728 0-1.11.635-.324.524-.323 1.28 0 .735.324 1.259.392.634 1.097.634.693 0 1.085-.646.336-.535.336-1.269M72.421 9.809l-1.702 5.303h-1.108l-.705-2.303a17 17 0 0 1-.437-1.713h-.022q-.157.874-.437 1.713l-.749 2.303h-1.12l-1.6-5.303h1.242l.615 2.521q.222.894.37 1.702h.021q.135-.666.449-1.69l.772-2.532h.985l.74 2.477q.268.906.436 1.746h.033q.123-.817.37-1.746l.66-2.477zM78.69 15.112h-1.21v-3.037q0-1.404-1.095-1.404-.538 0-.874.386a1.35 1.35 0 0 0-.335.909v3.145h-1.21v-3.786q0-.698-.043-1.518h1.062l.057.829h.033q.21-.386.627-.64a2.1 2.1 0 0 1 1.096-.298q.762 0 1.266.48.626.59.626 1.757zM82.025 15.112h-1.208V7.375h1.208zM89.144 12.416q0 1.223-.717 2.008-.75.809-1.992.808-1.2 0-1.909-.775t-.71-1.953q0-1.232.733-2.018.734-.785 1.975-.786 1.198 0 1.927.774.692.754.693 1.942m-1.255.038q0-.734-.325-1.258-.379-.635-1.083-.635-.73 0-1.109.635-.325.524-.324 1.28 0 .735.324 1.259.392.634 1.097.634.693 0 1.084-.646.337-.535.336-1.269M94.997 15.112H93.91l-.09-.611h-.034q-.556.73-1.588.731-.772 0-1.242-.48a1.49 1.49 0 0 1-.426-1.08q0-.971.834-1.484.835-.514 2.346-.502v-.099q0-1.048-1.13-1.047-.804 0-1.417.392l-.246-.774c.505-.305 1.13-.458 1.866-.458q2.133 0 2.134 2.194v1.953q0 .795.079 1.265m-1.256-1.823v-.818q-2-.034-2 1.07 0 .414.231.621a.86.86 0 0 0 .591.207q.4 0 .74-.245a1 1 0 0 0 .438-.835M101.867 15.112h-1.073l-.056-.852h-.034q-.515.972-1.746.972-.985 0-1.634-.753-.65-.752-.649-1.953 0-1.287.705-2.084a2.2 2.2 0 0 1 1.679-.743q1.096 0 1.532.72h.023V7.375h1.211v6.308q0 .774.042 1.429m-1.253-2.237v-.884q0-.23-.033-.371a1.34 1.34 0 0 0-.437-.715 1.2 1.2 0 0 0-.81-.289q-.674 0-1.063.524-.387.525-.388 1.342 0 .787.372 1.277.394.524 1.057.524.594 0 .955-.437.348-.404.347-.97M112.21 12.416q0 1.223-.717 2.008-.75.809-1.993.808-1.195 0-1.908-.775-.71-.775-.71-1.953 0-1.232.733-2.018t1.976-.786q1.197 0 1.925.774.693.754.694 1.942m-1.254.038q0-.734-.324-1.258-.381-.635-1.086-.635-.726 0-1.108.635-.325.524-.325 1.28 0 .735.325 1.259.392.634 1.097.634.693 0 1.086-.646.334-.535.335-1.269M118.711 15.112h-1.208v-3.037q.001-1.404-1.097-1.404-.537 0-.872.386a1.34 1.34 0 0 0-.336.909v3.145h-1.21v-3.786q0-.698-.043-1.518h1.061l.057.829h.033a1.74 1.74 0 0 1 .627-.64 2.1 2.1 0 0 1 1.097-.298q.76 0 1.265.48.627.59.626 1.757zM126.849 10.692h-1.331v2.576q0 .982.705.982.326 0 .539-.055l.031.894q-.36.132-.939.132-.716 0-1.118-.425-.404-.425-.404-1.43v-2.674h-.795v-.883h.795v-.972l1.185-.349v1.32h1.331v.884zM133.251 15.112h-1.21v-3.015q0-1.427-1.095-1.427-.84 0-1.154.827a1.4 1.4 0 0 0-.057.424v3.19h-1.208V7.375h1.208v3.196h.023q.572-.873 1.634-.872.751 0 1.244.48.615.6.615 1.78zM139.854 12.21q0 .316-.045.534h-3.626q.023.786.525 1.2.46.371 1.187.371a4.1 4.1 0 0 0 1.467-.25l.189.819q-.773.327-1.826.327-1.264 0-1.985-.726-.723-.725-.721-1.947-.001-1.2.671-1.997.703-.85 1.902-.85 1.174 0 1.778.85.485.676.484 1.668m-1.154-.305a1.55 1.55 0 0 0-.234-.906q-.314-.491-.962-.492-.594 0-.962.48-.301.383-.359.918z"/></svg>