<svg width="42" height="40" viewBox="0 0 42 40" fill="none" xmlns="http://www.w3.org/2000/svg">
<g clip-path="url(#clip0_389_4329)">
<path d="M40.0659 10.5563C39.3735 10.1271 38.5492 9.98359 37.745 10.1523C36.9407 10.3209 36.2526 10.7815 35.8076 11.4491L35.1431 12.446L31.2691 18.2573V0.78125C31.2691 0.349844 30.9064 0 30.4589 0H0.810185C0.36272 0 0 0.349844 0 0.78125V29.0281C0 29.4595 0.36272 29.8094 0.810185 29.8094C1.25765 29.8094 1.62037 29.4595 1.62037 29.0281V1.5625H29.6487V20.688L24.7518 28.0338C24.6969 28.1157 24.6573 28.2117 24.638 28.3075L24.0166 31.3972C23.6971 31.2848 23.3307 31.2541 22.9436 31.3238C22.3666 31.4278 21.8285 31.6878 21.3555 32.0331C21.338 31.7708 21.3123 31.5066 21.2802 31.2225C21.1906 30.4275 20.8279 29.7822 20.2592 29.4055C19.0735 28.6205 17.638 29.5437 17.1661 29.8469C15.6387 30.829 14.3271 32.2224 13.373 33.8766C13.1555 34.2536 13.2962 34.7293 13.6873 34.9391C13.812 35.0059 13.9471 35.0377 14.0803 35.0377C14.3648 35.0377 14.6409 34.8929 14.7891 34.636C15.6184 33.1982 16.7512 31.9916 18.0651 31.147C18.9886 30.5531 19.276 30.65 19.342 30.6936C19.5846 30.8542 19.6518 31.2352 19.6694 31.3916C19.7741 32.319 19.8028 32.973 19.6824 34.1816C19.6448 34.5588 19.8934 34.9077 20.272 35.0091C20.6507 35.1107 21.0502 34.9352 21.2197 34.5935C21.5904 33.8462 22.4039 33.0107 23.2414 32.8598C23.4084 32.8298 23.5019 32.8594 23.5192 32.9457C23.543 33.0843 23.5209 33.6136 23.472 34.1051C23.337 34.8196 24.214 35.3163 24.7874 34.8582L29.6489 31.5134V38.4375H1.62037V35.9031C1.62037 35.4717 1.25765 35.1219 0.810185 35.1219C0.36272 35.1219 0 35.4717 0 35.9031V39.2188C0 39.6502 0.36272 40 0.810185 40H30.4589C30.9064 40 31.2691 39.6502 31.2691 39.2188V29.2475L40.3274 15.6595L40.9919 14.6626C41.9106 13.2843 41.4953 11.4423 40.0659 10.5563ZM37.1707 12.294C37.601 11.6484 38.5191 11.4552 39.1897 11.8707C39.8674 12.2908 40.0644 13.1642 39.6288 13.8177L39.4024 14.1574L36.9442 12.6337L37.1707 12.294ZM25.4487 32.4834L25.9527 29.9774L26.0011 29.737L26.9058 30.2977L27.8106 30.8585L27.0002 31.4161L25.4487 32.4834ZM29.7784 28.5941C29.7781 28.5945 29.7777 28.595 29.7774 28.5955L29.011 29.745L26.5531 28.2215L31.1404 21.3404C31.1413 21.3392 31.1417 21.338 31.1425 21.3368L36.068 13.948L38.5262 15.4718L29.7784 28.5941Z" fill="#EE421D"/>
<path d="M15.2121 3.66638H6.1969C5.74944 3.66638 5.38672 4.01623 5.38672 4.44763V14.3161C5.38672 14.7476 5.74944 15.0974 6.1969 15.0974H15.2121C15.6595 15.0974 16.0223 14.7476 16.0223 14.3161V4.44763C16.0223 4.01615 15.6595 3.66638 15.2121 3.66638ZM14.4019 5.22888V10.8205C13.9545 10.4796 13.4625 10.2419 12.9863 10.0765C13.2717 9.66029 13.4384 9.16208 13.4384 8.62677C13.4384 7.17318 12.212 5.99052 10.7045 5.99052C9.19702 5.99052 7.97056 7.17318 7.97056 8.62677C7.97056 9.16146 8.13697 9.65919 8.42183 10.0752C7.94593 10.2404 7.45423 10.4778 7.00709 10.8185V5.22888H14.4019ZM10.7049 9.70021C10.7028 9.70021 10.6998 9.70013 10.6976 9.70013C10.0868 9.69654 9.59093 9.21654 9.59093 8.62669C9.59093 8.03466 10.0905 7.55294 10.7045 7.55294C11.3185 7.55294 11.818 8.03466 11.818 8.62669C11.818 9.21677 11.3218 9.69693 10.7106 9.70013C10.7089 9.70021 10.7065 9.70021 10.7049 9.70021ZM7.083 13.5349C7.19635 12.9988 7.43746 12.5624 7.81136 12.2126C8.86468 11.2272 10.6388 11.2615 10.6767 11.2625C10.6796 11.2626 10.6824 11.2624 10.6853 11.2625C10.6917 11.2625 10.698 11.2629 10.7045 11.2629C10.7117 11.2629 10.7188 11.2625 10.7259 11.2624C10.7285 11.2623 10.7311 11.2625 10.7337 11.2624C10.7514 11.2628 12.5375 11.2283 13.5926 12.2099C13.969 12.5601 14.2118 12.9975 14.3258 13.5349H7.083Z" fill="#EE421D"/>
<path d="M19.8414 6.78284H25.7862C26.2336 6.78284 26.5964 6.43299 26.5964 6.00159C26.5964 5.57018 26.2336 5.22034 25.7862 5.22034H19.8414C19.394 5.22034 19.0312 5.57018 19.0312 6.00159C19.0312 6.43299 19.394 6.78284 19.8414 6.78284Z" fill="#EE421D"/>
<path d="M19.8414 10.2164H25.7862C26.2336 10.2164 26.5964 9.86659 26.5964 9.43518C26.5964 9.00377 26.2336 8.65393 25.7862 8.65393H19.8414C19.394 8.65393 19.0312 9.00377 19.0312 9.43518C19.0312 9.86659 19.394 10.2164 19.8414 10.2164Z" fill="#EE421D"/>
<path d="M19.8414 13.6499H25.7862C26.2336 13.6499 26.5964 13.3001 26.5964 12.8687C26.5964 12.4372 26.2336 12.0874 25.7862 12.0874H19.8414C19.394 12.0874 19.0312 12.4372 19.0312 12.8687C19.0312 13.3001 19.394 13.6499 19.8414 13.6499Z" fill="#EE421D"/>
<path d="M5.53906 17.9919V21.8362C5.53906 22.2676 5.90178 22.6174 6.34925 22.6174H25.7851C26.2326 22.6174 26.5953 22.2676 26.5953 21.8362V17.9919C26.5953 17.5605 26.2326 17.2107 25.7851 17.2107H6.34925C5.90178 17.2107 5.53906 17.5605 5.53906 17.9919ZM7.15943 18.7732H24.9749V21.0549H7.15943V18.7732Z" fill="#EE421D"/>
<path d="M18.6196 25.688C18.6196 25.2566 18.2569 24.9067 17.8095 24.9067H6.6344C6.18694 24.9067 5.82422 25.2566 5.82422 25.688C5.82422 26.1194 6.18694 26.4692 6.6344 26.4692H17.8095C18.2569 26.4692 18.6196 26.1194 18.6196 25.688Z" fill="#EE421D"/>
<path d="M6.6344 28.1818C6.18694 28.1818 5.82422 28.5316 5.82422 28.963C5.82422 29.3944 6.18694 29.7443 6.6344 29.7443H11.8962C12.3436 29.7443 12.7063 29.3944 12.7063 28.963C12.7063 28.5316 12.3436 28.1818 11.8962 28.1818H6.6344Z" fill="#EE421D"/>
<path d="M0.13675 32.9312C0.381669 33.2857 0.892491 33.3817 1.25967 33.1468C1.62781 32.9114 1.72706 32.4168 1.48328 32.0633C1.23901 31.7089 0.726727 31.6123 0.360361 31.8476C-0.00948854 32.0851 -0.104604 32.5756 0.13675 32.9312Z" fill="#EE421D"/>
</g>
<defs>
<clipPath id="clip0_389_4329">
<rect width="41.4815" height="40" fill="white"/>
</clipPath>
</defs>
</svg>
