<svg xmlns="http://www.w3.org/2000/svg" width="53" height="52" fill="none"><path fill="#EE421D" d="M10.967 38.307q-1.734-1.907-2.6-4.074T7.5 28.947q0-5.547 3.553-10.314 3.554-4.766 9.447-7.366l1.907 2.773q-8.147 4.507-9.014 12.133 1.56-1.04 3.987-.693 2.946.347 4.94 2.513 1.993 2.168 1.993 5.114t-2.166 5.286q-2.167 2.34-5.287 2.34a8 8 0 0 1-3.293-.693q-1.56-.693-2.6-1.733m21.666 0q-1.733-1.907-2.6-4.074-.866-2.166-.866-5.286 0-5.547 3.553-10.314 3.553-4.766 9.447-7.366l1.906 2.773q-8.145 4.507-9.013 12.133 1.56-1.04 3.987-.693 2.945.347 4.94 2.513 1.992 2.168 1.993 5.114 0 2.946-2.08 5.373-1.907 2.253-5.373 2.253a8 8 0 0 1-3.294-.693q-1.56-.693-2.6-1.733" opacity=".15"/></svg>