<svg xmlns="http://www.w3.org/2000/svg" width="45" height="45" fill="none"><g clip-path="url(#a)"><path fill="#fff" d="m32.393 29.259-.684-1.54c.43-.757.763-1.561.994-2.4l1.572-.604a.7.7 0 0 0 .45-.656V20.94c0-.29-.18-.551-.45-.656l-1.571-.604a10.5 10.5 0 0 0-.995-2.4l.683-1.54a.7.7 0 0 0-.145-.782l-2.205-2.206a.7.7 0 0 0-.783-.145l-1.54.684a10.5 10.5 0 0 0-2.399-.995l-.605-1.57a.7.7 0 0 0-.656-.451h-3.118c-.291 0-.552.179-.656.45l-.605 1.571c-.838.232-1.642.565-2.4.995l-1.54-.684a.7.7 0 0 0-.782.146l-2.205 2.205a.7.7 0 0 0-.145.782l.683 1.54c-.43.757-.763 1.561-.994 2.4l-1.571.604a.7.7 0 0 0-.451.656v3.119c0 .29.18.552.45.656l1.571.605c.232.838.565 1.643.995 2.4l-.683 1.539a.7.7 0 0 0 .145.782l2.205 2.206a.7.7 0 0 0 .783.145l1.54-.684c.757.43 1.561.764 2.399.995l.605 1.571c.104.271.365.45.656.45h3.118c.291 0 .552-.178.657-.45l.604-1.57a10.5 10.5 0 0 0 2.4-.995l1.54.683c.265.118.576.06.782-.145l2.205-2.206a.7.7 0 0 0 .145-.782m-.964-4.628a9.1 9.1 0 0 1-1.109 2.674.7.7 0 0 0-.044.654l.635 1.43-1.522 1.522-1.43-.635a.7.7 0 0 0-.653.044c-.83.51-1.73.884-2.675 1.109a.7.7 0 0 0-.493.431l-.561 1.458h-2.153l-.562-1.458a.7.7 0 0 0-.493-.432 9.1 9.1 0 0 1-2.674-1.108.7.7 0 0 0-.654-.044l-1.43.635-1.522-1.523.635-1.429a.7.7 0 0 0-.044-.654 9.1 9.1 0 0 1-1.109-2.674.7.7 0 0 0-.431-.494l-1.459-.561v-2.153l1.46-.562a.7.7 0 0 0 .43-.493 9.1 9.1 0 0 1 1.109-2.674.7.7 0 0 0 .044-.654l-.635-1.43 1.522-1.522 1.43.635a.7.7 0 0 0 .654-.044 9.1 9.1 0 0 1 2.674-1.108.7.7 0 0 0 .493-.431l.562-1.46h2.153l.561 1.46a.7.7 0 0 0 .493.43 9.1 9.1 0 0 1 2.674 1.11.7.7 0 0 0 .654.043l1.43-.635 1.522 1.523-.634 1.429a.7.7 0 0 0 .043.654c.511.83.884 1.729 1.11 2.674.053.226.214.41.43.494l1.459.56v2.154l-1.459.562a.7.7 0 0 0-.431.493M22.5 15.526a6.98 6.98 0 0 0-6.974 6.974 6.98 6.98 0 0 0 6.974 6.973 6.98 6.98 0 0 0 6.974-6.973 6.98 6.98 0 0 0-6.974-6.974m0 12.541a5.574 5.574 0 0 1-5.567-5.567 5.574 5.574 0 0 1 5.567-5.568 5.574 5.574 0 0 1 5.567 5.568 5.574 5.574 0 0 1-5.567 5.567m14.843 2.32a6.96 6.96 0 0 0-6.955 6.955 6.96 6.96 0 0 0 6.955 6.955 6.96 6.96 0 0 0 6.954-6.955 6.96 6.96 0 0 0-6.954-6.954m0 12.503a5.554 5.554 0 0 1-5.548-5.548 5.554 5.554 0 0 1 5.548-5.548 5.554 5.554 0 0 1 5.548 5.548 5.554 5.554 0 0 1-5.548 5.548m2.692-4.17a1.9 1.9 0 0 1-.445 1.506c-.355.41-.909.702-1.544.826v.246a.703.703 0 1 1-1.407 0v-.258c-.991-.222-1.75-.904-1.984-1.846a.703.703 0 1 1 1.364-.34c.163.653.851.87 1.389.857.47-.011.919-.174 1.118-.405a.5.5 0 0 0 .113-.416c-.024-.197-.08-.66-1.405-.876-1.907-.314-2.352-1.32-2.39-2.108-.052-1.067.666-1.962 1.795-2.25v-.27a.703.703 0 1 1 1.407 0v.265c.73.177 1.42.651 1.785 1.52a.703.703 0 1 1-1.296.544c-.278-.66-.959-.83-1.51-.704-.136.03-.807.214-.777.827.008.162.029.593 1.214.788 1.57.258 2.435.962 2.573 2.095M14.612 7.658A6.96 6.96 0 0 0 7.657.703 6.96 6.96 0 0 0 .703 7.657a6.96 6.96 0 0 0 6.954 6.954 6.96 6.96 0 0 0 6.955-6.954m-12.503 0a5.554 5.554 0 0 1 5.548-5.548 5.554 5.554 0 0 1 5.548 5.548 5.554 5.554 0 0 1-5.548 5.548A5.554 5.554 0 0 1 2.11 7.657m5.548 4.659a.703.703 0 0 1-.703-.703v-.258c-.991-.222-1.75-.904-1.984-1.846a.703.703 0 0 1 1.364-.34c.163.653.852.869 1.388.857.47-.011.92-.174 1.12-.405a.5.5 0 0 0 .112-.416c-.024-.197-.08-.66-1.405-.877-1.907-.313-2.353-1.319-2.39-2.107-.053-1.067.666-1.963 1.795-2.25v-.27a.703.703 0 0 1 1.407 0v.264c.73.178 1.42.652 1.785 1.52a.703.703 0 1 1-1.297.545c-.277-.66-.958-.83-1.51-.705-.135.03-.806.215-.776.827.008.163.029.594 1.214.789 1.57.257 2.435.962 2.573 2.095a1.9 1.9 0 0 1-.445 1.505c-.355.41-.91.702-1.545.825v.247a.703.703 0 0 1-.703.703m11.44-6.36a.7.7 0 0 1 .304-.536l2.344-1.608a.703.703 0 1 1 .795 1.159l-.552.38q.33.023.656.058a21.2 21.2 0 0 1 14.347 7.789 21.2 21.2 0 0 1 4.637 15.652.703.703 0 0 1-1.399-.147 19.8 19.8 0 0 0-4.331-14.62 19.8 19.8 0 0 0-14.212-7.344l.704.626a.703.703 0 1 1-.935 1.05l-2.124-1.89a.7.7 0 0 1-.234-.57m8.956 32.778a.7.7 0 0 1-.246.564l-2.162 1.845a.7.7 0 0 1-.992-.079.703.703 0 0 1 .079-.99l.51-.436C19.3 39.82 13.684 37.585 9.5 33.401A21.2 21.2 0 0 1 3.254 18.32a.703.703 0 0 1 1.406 0c0 10.986 8.937 19.923 19.923 19.923q.406 0 .814-.016l-.765-.55a.703.703 0 0 1 .82-1.142l2.309 1.658a.7.7 0 0 1 .293.542"/></g><defs><clipPath id="a"><path fill="#fff" d="M0 0h45v45H0z"/></clipPath></defs></svg>