<svg xmlns="http://www.w3.org/2000/svg" width="45" height="45" fill="none"><g fill="#fff" clip-path="url(#a)"><path d="m32.995 43.868-3.558-12.126v-.002l-1.27-4.327v-.002l-1.754-5.979-.001-.003-2.791-9.514a3.23 3.23 0 0 0 2.106-3.026A3.23 3.23 0 0 0 22.5 5.662a3.23 3.23 0 0 0-3.226 3.227c0 1.386.877 2.57 2.106 3.026L15.564 31.74v.002l-3.557 12.126a.883.883 0 0 0 1.694.497l.541-1.843 8.259-5.456 8.258 5.456.541 1.843a.884.884 0 0 0 1.695-.497M21.04 8.89c0-.805.655-1.46 1.46-1.46.806 0 1.461.655 1.461 1.46s-.655 1.46-1.46 1.46c-.806 0-1.461-.655-1.461-1.46m1.46 5.481 1.89 6.44H20.61zm-2.407 8.205h4.815l1.236 4.216h-7.287zm-5.08 17.321 1.91-6.514 3.975 2.626zm2.43-8.287.895-3.052h8.325l.895 3.052-5.058 3.34zm6.66 4.4 3.975-2.627 1.91 6.514z"/><path d="M18.302 4.691a.883.883 0 0 0-1.249-1.249c-3.003 3.004-3.003 7.89 0 10.894a.88.88 0 0 0 1.25 0 .883.883 0 0 0 0-1.249 5.944 5.944 0 0 1 0-8.396M27.947 3.442a.883.883 0 1 0-1.249 1.25 5.944 5.944 0 0 1 0 8.395.883.883 0 1 0 1.25 1.249c3.003-3.004 3.003-7.89 0-10.894"/><path d="M15.119 1.508A.883.883 0 1 0 13.87.258a12.13 12.13 0 0 0-3.575 8.631c0 3.26 1.27 6.325 3.575 8.63a.88.88 0 0 0 1.249 0 .883.883 0 0 0 0-1.248c-4.07-4.07-4.07-10.693 0-14.763M32.9 2.494a.883.883 0 0 0-1.504.926 10.4 10.4 0 0 1-1.514 12.85.883.883 0 1 0 1.249 1.25 12.24 12.24 0 0 0 3.5-7.278 12.26 12.26 0 0 0-1.732-7.748M30.506 0c-1.136 0-1.138 1.766 0 1.766S31.645 0 30.506 0"/></g><defs><clipPath id="a"><path fill="#fff" d="M0 0h45v45H0z"/></clipPath></defs></svg>