<svg xmlns="http://www.w3.org/2000/svg" width="45" height="43" fill="none"><path fill="#fff" fill-rule="evenodd" d="m11.956 37.05.695 1.229.001.002c.52.926.19 2.108-.73 2.628l-2.294 1.3-.003.002c-.926.52-2.108.19-2.628-.731L.25 29.56a1.933 1.933 0 0 1 .726-2.631l2.297-1.3a1.94 1.94 0 0 1 2.63.728v.002l.574 1.013 6.084-3.523c1.784-1.031 3.605-1.71 5.564-1.074 1.934.627 5.092 1.978 8.314 2.56a1 1 0 0 1 .095.024c1.58.512 2.542 2.107 2.11 3.711q-.128.48-.363.868c.428-.1.845-.265 1.253-.503l8.18-4.764c2.91-1.695 4.849-1.527 5.947-.79.934.626 1.365 1.696 1.337 2.746-.028 1.06-.53 2.074-1.361 2.585l-14.843 9.139c-1.54.95-3.228 1.173-4.976.707L13.342 36.25zm-.57 1.943L4.643 27.075v-.002a.48.48 0 0 0-.653-.18l-2.296 1.3a.48.48 0 0 0-.18.65L8.26 40.766c.13.229.423.31.653.18l2.293-1.299a.48.48 0 0 0 .18-.653m-.145-3.206 1.636-.944a.73.73 0 0 1 .55-.073l10.767 2.886c1.348.36 2.65.193 3.838-.54l14.844-9.14c.407-.25.623-.751.665-1.266.065-.792-.31-1.664-1.288-1.869-.88-.184-2.121.102-3.808 1.085l-8.18 4.764c-1.293.753-2.649.961-4.126.726h-.003l-1.015-.166-.03-.005c-1.845-.379-3.555-.936-5.453-1.446a.726.726 0 0 1 .376-1.402c1.86.5 3.535 1.047 5.34 1.42.965.108 1.668-.297 1.89-1.123.225-.838-.298-1.654-1.114-1.94-3.277-.6-6.485-1.96-8.451-2.598-1.553-.504-2.977.133-4.39.95l-6.096 3.53zm-7.535-7.415a.952.952 0 1 1 .276 1.884.952.952 0 1 1-.276-1.884M14.87 20.15l-5.568-.001C4.186 20.149 0 15.963 0 10.846c-.001-5.115 4.185-9.302 9.302-9.302h8.618a.724.724 0 0 1 .726.726v4.357c0 .201-.081.383-.213.514a.72.72 0 0 1-.514.214H9.303a3.5 3.5 0 0 0-3.493 3.492 3.5 3.5 0 0 0 3.493 3.493h8.616c.401 0 .726.325.726.726l.001 4.358a.726.726 0 0 1-.726.726h-3.049m-.7-17.154H9.3c-4.318 0-7.85 3.533-7.85 7.85s3.534 7.851 7.852 7.851l4.867.001v-2.906H9.302c-2.72 0-4.946-2.226-4.944-4.945a4.96 4.96 0 0 1 4.944-4.944h4.868zm3.023 0h-1.572v2.906h1.572zm0 15.703v-2.907H15.62v2.906zm6.143-8.686-2.915-.016a.726.726 0 0 1 .008-1.451l3.116.016q.136-.632.343-1.235h-2.848a.726.726 0 0 1 0-1.452h3.468q.33-.635.735-1.219h-4.818a.726.726 0 0 1 0-1.452h6.029A10.81 10.81 0 0 1 34.153 0C40.144 0 45 4.856 45 10.847c0 5.992-4.856 10.848-10.847 10.848-3.01 0-5.733-1.226-7.698-3.205H21.04a.726.726 0 0 1 0-1.451h4.203q-.406-.584-.735-1.22h-4.083a.726.726 0 0 1 0-1.451h3.463q-.244-.71-.388-1.46h-2.46a.726.726 0 0 1 0-1.451h2.281a11 11 0 0 1 .015-1.444m4.56 7.845a9.36 9.36 0 0 0 6.256 2.385 9.36 9.36 0 0 0 6.256-2.385 6.34 6.34 0 0 0-6.256-5.308 6.34 6.34 0 0 0-6.256 5.308m13.699-1.276a9.36 9.36 0 0 0 1.952-5.735 9.395 9.395 0 0 0-9.395-9.395 9.395 9.395 0 0 0-9.396 9.395c0 2.16.728 4.149 1.952 5.736a7.82 7.82 0 0 1 4.734-5 4.3 4.3 0 0 1-1.59-3.333c0-2.366 1.934-4.3 4.3-4.3s4.3 1.934 4.3 4.3c0 1.34-.621 2.543-1.59 3.333a7.82 7.82 0 0 1 4.733 5M34.153 11.1A2.856 2.856 0 0 0 37 8.25a2.856 2.856 0 0 0-2.848-2.849 2.856 2.856 0 0 0-2.85 2.849 2.857 2.857 0 0 0 2.85 2.849" clip-rule="evenodd"/></svg>