<svg xmlns="http://www.w3.org/2000/svg" width="45" height="45" fill="none"><g fill="#fff" clip-path="url(#a)"><path d="M7.031 17.578h4.219a.703.703 0 0 0 .703-.703v-4.219a.703.703 0 0 0-.703-.703H7.031a.703.703 0 0 0-.703.703v4.219a.703.703 0 0 0 .703.703m.703-4.219h2.813v2.813H7.734zM14.063 17.578h4.218v-1.406h-3.515v-2.813h3.515v-1.406h-4.218a.703.703 0 0 0-.704.703v4.219a.703.703 0 0 0 .704.703M7.031 24.61h4.219a.703.703 0 0 0 .703-.704v-4.218a.703.703 0 0 0-.703-.704H7.031a.703.703 0 0 0-.703.703v4.22a.703.703 0 0 0 .703.702m.703-4.22h2.813v2.813H7.734zM7.031 31.64h4.219a.703.703 0 0 0 .703-.703V26.72a.703.703 0 0 0-.703-.703H7.031a.703.703 0 0 0-.703.703v4.218a.703.703 0 0 0 .703.704m.703-4.218h2.813v2.812H7.734zM22.5 24.61h-2.812a.703.703 0 0 0-.704.703v2.812a.703.703 0 0 0 .703.703H22.5a.703.703 0 0 0 .703-.703v-2.812a.703.703 0 0 0-.703-.704m-.703 2.812H20.39v-1.406h1.406zM22.5 30.234h-2.812a.703.703 0 0 0-.704.703v2.813a.703.703 0 0 0 .703.703H22.5a.703.703 0 0 0 .703-.703v-2.812a.703.703 0 0 0-.703-.704m-.703 2.813H20.39V31.64h1.406zM28.125 30.234h-2.812a.703.703 0 0 0-.704.703v2.813a.703.703 0 0 0 .703.703h2.813a.703.703 0 0 0 .703-.703v-2.812a.703.703 0 0 0-.703-.704m-.703 2.813h-1.406V31.64h1.406zM25.313 28.828h2.812v-1.406h-2.11v-2.11H24.61v2.813a.703.703 0 0 0 .703.703"/><path d="M43.594 9.844h-1.275a11 11 0 0 0-.626-1.525l.992-.992a.703.703 0 0 0 0-.994l-4.018-4.018a.724.724 0 0 0-.994 0l-.992.99a11 11 0 0 0-1.525-.624V1.406a.703.703 0 0 0-.703-.703h-5.625a.703.703 0 0 0-.703.703v1.275q-.785.256-1.524.627l-.992-.993a.703.703 0 0 0-.995 0l-4.012 4.013H2.812a.703.703 0 0 0-.703.703v2.813a.703.703 0 0 0 .704.703h.703v29.531h-2.11a.703.703 0 0 0-.703.703v2.813a.703.703 0 0 0 .703.703H33.75a.703.703 0 0 0 .703-.703V40.78a.703.703 0 0 0-.703-.703h-2.11V26.016h2.813a.703.703 0 0 0 .703-.703v-1.275q.786-.257 1.525-.627l.992.992a.703.703 0 0 0 .994 0l4.018-4.017a.703.703 0 0 0 0-.994l-.99-.993q.368-.739.624-1.524h1.275a.703.703 0 0 0 .703-.703v-5.625a.703.703 0 0 0-.703-.703m-38.672.703h13.36V9.14H3.515V7.734h17.488l.585.585a11 11 0 0 0-.627 1.525h-1.274a.703.703 0 0 0-.704.703v5.625a.703.703 0 0 0 .703.703h1.275q.257.785.627 1.524l-.992.992a.703.703 0 0 0 0 .995l1.41 1.41h-3.023v-2.108a.703.703 0 0 0-.703-.704h-4.218a.703.703 0 0 0-.704.703v4.22a.703.703 0 0 0 .704.702h2.109v1.407h-2.11a.703.703 0 0 0-.703.703v4.218a.703.703 0 0 0 .704.704h2.109v2.812a2.813 2.813 0 0 0-2.813 2.813v2.812h-1.406v-2.812a2.813 2.813 0 1 0-5.625 0v2.812H4.922zm9.844 29.531v-2.812a1.406 1.406 0 0 1 1.406-1.407v4.22zm1.406-9.844h-1.406v-2.812h1.406zm.703-8.437a.703.703 0 0 0-.703.703v.703h-1.406v-2.812h2.812v1.406zm-6.328 18.281H7.734v-2.812a1.406 1.406 0 0 1 2.813 0zm22.5 2.813H2.109v-1.407h30.938zm-8.438-2.813h-1.406v-2.11a.703.703 0 1 1 1.406 0zm5.625 0h-4.218v-2.11a2.11 2.11 0 1 0-4.22 0v2.11h-4.218V23.203h5.836l1.2 1.2a.724.724 0 0 0 .994 0l.993-.989a11 11 0 0 0 1.524.624v1.274a.703.703 0 0 0 .703.704h1.406zm12.657-24.61h-1.094a.7.7 0 0 0-.678.517 9.8 9.8 0 0 1-.9 2.198.7.7 0 0 0 .115.844l.863.862-3.024 3.024-.865-.864a.7.7 0 0 0-.844-.115 9.8 9.8 0 0 1-2.199.903.7.7 0 0 0-.516.678v1.094h-4.218v-1.094a.7.7 0 0 0-.516-.678 9.8 9.8 0 0 1-2.198-.9.7.7 0 0 0-.844.116l-.862.863-3.024-3.024.863-.862a.7.7 0 0 0 .115-.844 9.8 9.8 0 0 1-.903-2.198.7.7 0 0 0-.677-.52H20.39V11.25h1.094a.704.704 0 0 0 .678-.516c.21-.767.514-1.505.903-2.199a.7.7 0 0 0-.115-.844l-.863-.86 3.023-3.024.862.862a.7.7 0 0 0 .844.116 9.8 9.8 0 0 1 2.198-.904.7.7 0 0 0 .516-.678V2.11h4.219v1.094a.7.7 0 0 0 .516.678 9.8 9.8 0 0 1 2.199.904.7.7 0 0 0 .843-.116l.862-.862 3.024 3.023-.864.862a.704.704 0 0 0-.115.844 9.8 9.8 0 0 1 .904 2.199.7.7 0 0 0 .678.516h1.094z"/><path d="M31.64 4.922a8.437 8.437 0 1 0 8.438 8.437 8.447 8.447 0 0 0-8.437-8.437m-.703 15.433v-3.727a.7.7 0 0 0-.468-.663 3.508 3.508 0 0 1-.938-6.116v2.807c0 .187.074.365.206.497l1.407 1.407a.703.703 0 0 0 .994 0l1.406-1.407a.7.7 0 0 0 .206-.497V9.85a3.509 3.509 0 0 1-.938 6.117.7.7 0 0 0-.468.663v3.726a7 7 0 0 1-1.407 0m2.813-.288v-2.968a4.916 4.916 0 0 0-.468-9.08.703.703 0 0 0-.938.664v3.682l-.703.703-.703-.703V8.683A.703.703 0 0 0 30 8.02a4.916 4.916 0 0 0-.469 9.08v2.967a7.031 7.031 0 1 1 4.219 0"/></g><defs><clipPath id="a"><path fill="#fff" d="M0 0h45v45H0z"/></clipPath></defs></svg>