<svg xmlns="http://www.w3.org/2000/svg" width="44" height="44" fill="none"><path fill="#fff" fill-rule="evenodd" d="M42.706 43.396H1.294a.69.69 0 0 1-.69-.69V5.766a.69.69 0 0 1 .69-.69h4.55V1.293a.69.69 0 0 1 .69-.69h23.885a.7.7 0 0 1 .488.202l4.617 4.621a.7.7 0 0 1 .202.488V7.76a4.041 4.041 0 0 1 1.586 7.318v6.773a.7.7 0 0 1-.184.47l-1.402 1.507V24.9a5.38 5.38 0 0 1 3.155 4.886c0 1.844-.94 3.477-2.365 4.443a9.94 9.94 0 0 1 6.876 8.403.69.69 0 0 1-.686.763M24.489 6.456H1.985v35.56H23.73a9.95 9.95 0 0 1 6.792-7.786 5.37 5.37 0 0 1-2.364-4.443c0-1.128.35-2.176.948-3.04V11.072H25.18a.69.69 0 0 1-.69-.69zm5.24-4.472H7.224v3.091H25.18a.7.7 0 0 1 .488.202l4.617 4.617a.7.7 0 0 1 .202.489v14.985a5.32 5.32 0 0 1 3.859-.88v-.66l-1.401-1.505a.7.7 0 0 1-.185-.47v-.59a.7.7 0 0 1 .227-.512l.392-.355-.392-.356a.69.69 0 0 1 0-1.023l.392-.355-.392-.355a.7.7 0 0 1-.227-.512v-2.716a4.041 4.041 0 0 1 1.586-7.318V6.605h-3.927a.69.69 0 0 1-.69-.69zm3.642 3.24-2.262-2.263v2.264zm1.665 3.859a2.66 2.66 0 0 0-1.259 5.002.69.69 0 0 1 .363.608v2.796l.73.662a.69.69 0 0 1 0 1.023l-.392.355.393.355a.69.69 0 0 1 0 1.023l-.73.662v.012l.895.963.896-.963v-6.888a.69.69 0 0 1 .363-.608 2.66 2.66 0 0 0-1.259-5.002m-1.518 24.686a3.99 3.99 0 0 0 3.983-3.982 3.99 3.99 0 0 0-3.983-3.983 3.99 3.99 0 0 0-3.98 3.983 3.99 3.99 0 0 0 3.98 3.982m-8.384 8.247h16.769a8.552 8.552 0 0 0-16.77 0m.736-34.584v2.26h2.26zm10.162 3.5a.996.996 0 1 1-1.992 0 .996.996 0 0 1 1.992 0M4.649 33.181h4.608c.71 0 1.291.58 1.291 1.291v4.608c0 .711-.58 1.292-1.291 1.292H4.649c-.711 0-1.292-.58-1.292-1.291v-4.609c0-.71.581-1.291 1.292-1.291m.089 1.38v4.43h4.43v-4.43zm.5 2.585a.69.69 0 0 1 .976-.977l.468.467.959-1.185a.69.69 0 0 1 1.073.868L7.274 38.1a.69.69 0 0 1-1.025.055zm7.493-1.097a.69.69 0 0 1 0-1.38h8.28a.69.69 0 0 1 0 1.38zm0-8.086a.69.69 0 0 1 0-1.38h8.28a.69.69 0 0 1 0 1.38zm0 10.921a.69.69 0 0 1 0-1.38h10.552a.69.69 0 0 1 0 1.38zM4.65 25.095h4.608c.71 0 1.291.58 1.291 1.292v4.607c0 .711-.58 1.292-1.291 1.292H4.649c-.711 0-1.292-.58-1.292-1.292v-4.607c0-.711.581-1.292 1.292-1.292m.089 1.38v4.43h4.43v-4.43zm.5 2.585a.69.69 0 0 1 .976-.977l.468.467.959-1.185a.69.69 0 0 1 1.073.868l-1.44 1.781a.69.69 0 0 1-1.025.055zm7.493 1.738a.69.69 0 0 1 0-1.38h13.14a.69.69 0 0 1 0 1.38zm-2.615-15.365-1.708-.066a.69.69 0 0 1-.41-1.224l7.11-5.813a.69.69 0 0 1 .874 0l7.111 5.813a.69.69 0 0 1-.41 1.224l-1.708.066v7.653a.69.69 0 0 1-.69.69h-9.479a.69.69 0 0 1-.69-.69zm9.478-.367-4.049-3.31-4.048 3.31v7.33h1.578v-4.96a.69.69 0 0 1 .69-.69h3.561a.69.69 0 0 1 .69.69v4.96h1.578zm-5.14 7.33h2.182v-4.269h-2.181zm1.528-12.065 4.572 3.737.254-.01-5.262-4.303-5.263 4.303.254.01 4.572-3.737a.69.69 0 0 1 .873 0" clip-rule="evenodd"/></svg>