<svg xmlns="http://www.w3.org/2000/svg" width="44" height="44" fill="none"><path fill="#fff" d="M41.18 17.124h-5.25a.82.82 0 0 0-.82.82v4.143a.82.82 0 1 0 1.64 0v-3.322h3.61v21.594h-3.61V28.24a.82.82 0 0 0-1.64 0v12.12h-1.641V23.38a.82.82 0 0 0-.82-.82h-5.25a.82.82 0 0 0-.82.82v16.98h-1.642V29.121a.82.82 0 0 0-.82-.82h-5.25a.82.82 0 0 0-.82.82V40.36h-1.64v-6.531a.82.82 0 0 0-.821-.82h-5.25a.82.82 0 0 0-.82.82v6.531H2.46a.82.82 0 0 1-.82-.82V2.461c0-.452.368-.82.82-.82h21.162v5.414a2.464 2.464 0 0 0 2.46 2.46h5.415v10.09a.82.82 0 0 0 1.64 0V8.696a.82.82 0 0 0-.24-.58L25.023.24a.82.82 0 0 0-.58-.24H2.461A2.464 2.464 0 0 0 0 2.46v37.08A2.464 2.464 0 0 0 2.46 42h38.72a.82.82 0 0 0 .82-.82V17.944a.82.82 0 0 0-.82-.82M25.264 2.8l5.074 5.074h-4.254a.82.82 0 0 1-.82-.82zM14.766 40.359h-3.61v-5.711h3.61zm8.53 0h-3.608V29.941h3.609zm8.532 0h-3.61V24.2h3.61z"/><path fill="#fff" d="M38.248 25.594a.86.86 0 0 0-1.215 0 .87.87 0 0 0-.252.607c0 .227.092.448.252.608s.382.252.608.252a.87.87 0 0 0 .607-.252.87.87 0 0 0 .252-.608.87.87 0 0 0-.252-.607M12.51 4.703a.86.86 0 0 0-.859.86v1.546c-3.956.429-7.045 3.79-7.045 7.857 0 4.359 3.546 7.904 7.905 7.904 4.068 0 7.428-3.088 7.857-7.044h1.546a.86.86 0 0 0 .86-.86c0-5.659-4.605-10.263-10.263-10.263m0 16.448a6.19 6.19 0 0 1-6.185-6.185 6.195 6.195 0 0 1 5.326-6.126v6.126c0 .475.385.86.86.86h6.125a6.195 6.195 0 0 1-6.125 5.325m.86-7.044V6.465a8.56 8.56 0 0 1 7.642 7.642zM21.914 25.287H5.5a.86.86 0 0 0 0 1.719h16.414a.86.86 0 0 0 0-1.719M11 29.434H5.5a.86.86 0 0 0 0 1.718H11a.86.86 0 0 0 0-1.718M15.911 29.685a.87.87 0 0 0-.607-.251.862.862 0 0 0-.608 1.467c.16.16.38.251.608.251a.87.87 0 0 0 .607-.252.87.87 0 0 0 .252-.607.87.87 0 0 0-.252-.608"/></svg>