<svg xmlns="http://www.w3.org/2000/svg" width="45" height="44" fill="none"><path fill="#fff" d="M35.751 34.353h1.43v1.407h-1.43zM32.892 34.353h1.43v1.407h-1.43zM30.032 34.353h1.43v1.407h-1.43zM30.032 37.167h1.43v1.406h-1.43zM32.892 37.167h1.43v1.406h-1.43zM35.751 37.167h1.43v1.406h-1.43z"/><path fill="#fff" d="M41.472 21.1v-8.028l-6.435-6.33-6.435 6.33v6.071l-2.86-2.5-3.81 3.33a6.4 6.4 0 0 0-1.196-.755V8.44c0-4.654-3.85-8.44-8.58-8.44-4.732 0-8.581 3.786-8.581 8.44v10.764c-2.16 1.046-3.576 3.208-3.576 5.669v7.48c0 1.552 1.283 2.814 2.86 2.814h1.43v4.22H18.59v4.22h25.743V21.1zm1.43 2.813h-7.15v-1.406h7.15zM35.753 42.2h-4.29v-2.813h4.29zm-5.72-4.22v4.22h-1.43V30.947h10.01V42.2h-1.43v-4.22zm7.15-8.44h-7.15v-1.407h7.15zm-1.43-8.44v-7.033h4.29V21.1zm3.28-8.44h-7.99l3.995-3.929zm-9 1.407h4.29v12.66h-1.43v-3.833l-2.86-2.5zm.264 8.44h-9.11l4.555-3.983zm-18.14-21.1c3.942 0 7.15 3.155 7.15 7.033V18.7l-3.737-.847a.7.7 0 0 1-.554-.685v-.595a8.74 8.74 0 0 0 2.86-6.457V8.44h-.714a6.2 6.2 0 0 1-4.377-1.782l-.629-.62-.628.619A6.2 6.2 0 0 1 7.15 8.44h-.715v1.677a8.74 8.74 0 0 0 2.86 6.457v.594c0 .33-.227.611-.554.685l-3.736.848V8.44c0-3.878 3.207-7.033 7.15-7.033m2.144 25.32v2.813H5.72v-2.813zm-2.36-1.407-1.042-2.813h2.517L12.37 25.32zm1.995-4.22h-3.56l-.773-2.084a2.09 2.09 0 0 0 1.07-1.402q.57.348 1.2.616l.283.119.282-.12q.63-.266 1.201-.616c.131.604.522 1.112 1.07 1.403zm-1.78-4.289c-2.616-1.229-4.29-3.825-4.29-6.695v-.302a7.62 7.62 0 0 0 4.29-1.81 7.6 7.6 0 0 0 4.29 1.81v.302c0 2.871-1.673 5.466-4.29 6.695M1.43 32.353v-7.48c0-2.307 1.596-4.28 3.88-4.797l2.918-.663 2.191 5.907H4.29v5.627H14.3c.79 0 1.43.63 1.43 1.406a1.42 1.42 0 0 1-1.43 1.407H2.86a1.42 1.42 0 0 1-1.43-1.407m4.29 5.627v-2.813H14.3v2.813zm10.011 0v-3.204c.851-.489 1.43-1.386 1.43-2.423 0-1.04-.575-1.949-1.43-2.435V25.32h-1.838l2.191-5.907 2.918.663c.673.152 1.3.442 1.85.842l-2.26 1.976V37.98zm4.29-14.067h11.442v2.814h-2.86v2.813h-1.43V42.2H20.02zM40.043 42.2V29.54h-1.43v-2.813h-2.86V25.32h7.15V42.2z"/><path fill="#fff" d="M37.182 17.473h1.43v1.407h-1.43zM37.182 20.287h1.43v1.406h-1.43zM31.46 20.287h1.43v1.406h-1.43zM31.46 17.473h1.43v1.407h-1.43zM24.31 27.32h1.43v1.407h-1.43zM21.45 27.32h1.43v1.407h-1.43zM21.45 30.133h1.43v1.407h-1.43zM24.31 30.133h1.43v1.407h-1.43zM21.45 32.947h1.43v1.406h-1.43zM24.31 32.947h1.43v1.406h-1.43zM21.45 35.76h1.43v1.407h-1.43zM24.31 35.76h1.43v1.407h-1.43zM21.45 38.573h1.43v1.407h-1.43zM24.31 38.573h1.43v1.407h-1.43zM21.45 41.387h1.43v1.406h-1.43zM24.31 41.387h1.43v1.406h-1.43z"/></svg>