<svg width="22" height="22" viewBox="0 0 22 22" fill="none" xmlns="http://www.w3.org/2000/svg">
<g clip-path="url(#clip0_1_765)">
<path d="M8.01953 16.1445V20.396C8.01953 20.693 8.2102 20.9561 8.49253 21.0496C8.56311 21.0725 8.63553 21.0835 8.70703 21.0835C8.92153 21.0835 9.1287 20.9827 9.2607 20.803L11.7476 17.4187L8.01953 16.1445Z" fill="white"/>
<path d="M21.7113 0.127498C21.5005 -0.0219188 21.2236 -0.0420854 20.9945 0.0779979L0.369457 10.8488C0.125624 10.9762 -0.0182926 11.2366 0.0018741 11.5107C0.0229574 11.7857 0.205374 12.0203 0.464791 12.1092L6.19854 14.0691L18.4095 3.62825L8.96046 15.0123L18.5699 18.2967C18.6414 18.3206 18.7165 18.3334 18.7917 18.3334C18.9164 18.3334 19.0401 18.2995 19.1492 18.2335C19.3234 18.1272 19.4416 17.9484 19.4719 17.7477L21.9927 0.789331C22.0303 0.532664 21.9221 0.277831 21.7113 0.127498Z" fill="white"/>
</g>
<defs>
<clipPath id="clip0_1_765">
<rect width="22" height="22" fill="white"/>
</clipPath>
</defs>
</svg>
