<svg xmlns="http://www.w3.org/2000/svg" width="156" height="45" fill="none"><path fill="#212121" d="M149.794 45H5.761C2.594 45 0 42.467 0 39.375V5.625C0 2.533 2.594 0 5.761 0h144.033c3.167 0 5.761 2.533 5.761 5.625v33.75c0 3.092-2.594 5.625-5.761 5.625"/><path fill="#fff" d="M149.794.901c2.667 0 4.838 2.12 4.838 4.724v33.75c0 2.604-2.171 4.724-4.838 4.724H5.761c-2.667 0-4.838-2.12-4.838-4.724V5.625c0-2.604 2.17-4.724 4.838-4.724zm0-.901H5.761C2.594 0 0 2.533 0 5.625v33.75C0 42.467 2.594 45 5.761 45h144.033c3.167 0 5.761-2.533 5.761-5.625V5.625c0-3.092-2.594-5.625-5.761-5.625"/><path fill="#fff" stroke="#fff" stroke-miterlimit="10" stroke-width=".163" d="M54.638 11.524c0 .94-.288 1.692-.856 2.253q-.98.999-2.543 1c-.996 0-1.846-.34-2.543-1.011-.698-.681-1.047-1.516-1.047-2.516q0-1.499 1.047-2.51 1.047-1.016 2.543-1.017c.495 0 .967.1 1.418.285.45.187.815.44 1.08.753l-.602.593c-.462-.533-1.091-.796-1.896-.796q-1.089 0-1.89.747-.794.75-.794 1.945c0 .796.265 1.45.794 1.95a2.7 2.7 0 0 0 1.89.747c.77 0 1.418-.253 1.93-.752q.504-.496.579-1.369h-2.51v-.812h3.348c.04.175.052.346.052.51ZM59.949 8.706h-3.144v2.138h2.834v.812h-2.834v2.138h3.144v.828h-4.034V7.878h4.034zM63.696 14.622h-.89V8.706h-1.929v-.828h4.749v.828h-1.93zM69.063 14.622V7.878h.888v6.744zM73.89 14.622h-.883V8.706h-1.935v-.828h4.754v.828H73.89zM84.817 13.754q-1.023 1.023-2.533 1.023-1.517 0-2.537-1.023-1.02-1.021-1.019-2.504 0-1.484 1.019-2.505 1.02-1.023 2.537-1.022 1.503-.002 2.527 1.028c.685.686 1.024 1.516 1.024 2.499q0 1.483-1.018 2.504Zm-4.412-.565c.513.505 1.136.758 1.88.758.737 0 1.366-.253 1.873-.758q.769-.759.77-1.94c0-.785-.258-1.434-.77-1.938-.507-.505-1.136-.758-1.874-.758-.743 0-1.366.253-1.88.758-.51.504-.77 1.153-.77 1.939s.26 1.434.77 1.939ZM87.084 14.622V7.878h1.08l3.359 5.245h.038l-.038-1.297V7.878h.888v6.744h-.927l-3.518-5.504h-.038l.038 1.302v4.202z"/><path fill="#fff" d="M78.51 24.47c-2.706 0-4.917 2.01-4.917 4.785 0 2.752 2.21 4.784 4.917 4.784 2.712 0 4.923-2.032 4.923-4.784 0-2.774-2.21-4.785-4.923-4.785m0 7.685c-1.485 0-2.762-1.197-2.762-2.9 0-1.725 1.277-2.9 2.762-2.9s2.768 1.175 2.768 2.9c0 1.703-1.283 2.9-2.768 2.9M67.781 24.47c-2.712 0-4.917 2.01-4.917 4.785 0 2.752 2.205 4.784 4.917 4.784 2.71 0 4.917-2.032 4.917-4.784 0-2.774-2.206-4.785-4.917-4.785m0 7.685c-1.486 0-2.768-1.197-2.768-2.9 0-1.725 1.282-2.9 2.768-2.9s2.763 1.175 2.763 2.9c0 1.703-1.278 2.9-2.763 2.9m-12.767-6.219v2.034h4.974c-.146 1.136-.535 1.972-1.131 2.554-.726.703-1.857 1.483-3.843 1.483-3.06 0-5.457-2.411-5.457-5.4 0-2.988 2.396-5.4 5.457-5.4 1.655 0 2.86.632 3.748 1.45l1.468-1.433c-1.243-1.158-2.897-2.049-5.216-2.049-4.197 0-7.724 3.334-7.724 7.432s3.527 7.432 7.724 7.432c2.269 0 3.973-.725 5.312-2.087 1.373-1.34 1.8-3.224 1.8-4.746 0-.472-.04-.907-.112-1.27zm52.206 1.577c-.405-1.07-1.653-3.043-4.197-3.043-2.52 0-4.62 1.939-4.62 4.785 0 2.68 2.078 4.784 4.862 4.784 2.251 0 3.55-1.34 4.085-2.12l-1.671-1.087c-.557.796-1.316 1.323-2.414 1.323-1.09 0-1.872-.488-2.374-1.45l6.555-2.648zm-6.683 1.593a2.654 2.654 0 0 1 2.56-2.79c.855 0 1.581.418 1.823 1.015zm-5.328 4.642h2.155V19.686h-2.155zm-3.529-8.212h-.072c-.484-.56-1.407-1.066-2.576-1.066-2.455 0-4.699 2.104-4.699 4.8 0 2.683 2.244 4.77 4.699 4.77 1.17 0 2.093-.511 2.577-1.088h.072v.687c0 1.83-1.001 2.812-2.616 2.812-1.317 0-2.133-.928-2.47-1.709l-1.874.764c.54 1.269 1.97 2.83 4.344 2.83 2.526 0 4.658-1.452 4.658-4.983v-8.592H91.68zm-2.464 6.619c-1.485 0-2.728-1.214-2.728-2.884 0-1.686 1.243-2.917 2.728-2.917 1.464 0 2.617 1.23 2.617 2.917 0 1.67-1.153 2.884-2.617 2.884m28.092-12.47h-5.153v14.063h2.149V28.42h3.004c2.387 0 4.727-1.686 4.727-4.368 0-2.68-2.346-4.366-4.727-4.366m.056 6.779h-3.06v-4.822h3.06a2.47 2.47 0 0 1 2.521 2.41 2.484 2.484 0 0 1-2.521 2.412m13.285-2.02c-1.553 0-3.168.669-3.832 2.152l1.907.78c.411-.78 1.165-1.033 1.963-1.033 1.115 0 2.246.654 2.263 1.808v.148c-.389-.22-1.221-.544-2.245-.544-2.054 0-4.147 1.104-4.147 3.164 0 1.884 1.682 3.098 3.573 3.098 1.447 0 2.244-.637 2.746-1.378h.073v1.087h2.076V28.33c0-2.493-1.907-3.888-4.377-3.888m-.26 7.705c-.703 0-1.682-.34-1.682-1.19 0-1.09 1.221-1.507 2.279-1.507.946 0 1.389.204 1.964.473-.168 1.302-1.316 2.224-2.561 2.224m12.198-7.398-2.47 6.096h-.073l-2.554-6.096h-2.317l3.837 8.52-2.19 4.74h2.246l5.912-13.26zm-19.371 8.997h2.155V19.686h-2.155z"/><path fill="url(#a)" d="M12.023 8.479c-.339.345-.534.884-.534 1.582V34.94c0 .697.195 1.236.534 1.582l.083.076 14.28-13.936v-.33L12.106 8.398z"/><path fill="url(#b)" d="m31.14 27.312-4.754-4.648v-.33l4.76-4.647.107.06 5.637 3.132c1.61.89 1.61 2.352 0 3.246l-5.637 3.126z"/><path fill="url(#c)" d="M31.255 27.25 26.388 22.5 12.025 36.523c.534.549 1.406.615 2.397.066z"/><path fill="url(#d)" d="M31.255 17.748 14.422 8.409c-.991-.543-1.863-.477-2.397.072L26.388 22.5z"/><defs><linearGradient id="a" x1="25.118" x2="6.243" y1="35.199" y2="15.867" gradientUnits="userSpaceOnUse"><stop stop-color="#00A0FF"/><stop offset=".007" stop-color="#00A1FF"/><stop offset=".26" stop-color="#00BEFF"/><stop offset=".512" stop-color="#00D2FF"/><stop offset=".76" stop-color="#00DFFF"/><stop offset="1" stop-color="#00E3FF"/></linearGradient><linearGradient id="b" x1="38.985" x2="11.104" y1="22.498" y2="22.498" gradientUnits="userSpaceOnUse"><stop stop-color="#FFE000"/><stop offset=".409" stop-color="#FFBD00"/><stop offset=".775" stop-color="orange"/><stop offset="1" stop-color="#FF9C00"/></linearGradient><linearGradient id="c" x1="28.608" x2="3.012" y1="19.916" y2="-6.3" gradientUnits="userSpaceOnUse"><stop stop-color="#FF3A44"/><stop offset="1" stop-color="#C31162"/></linearGradient><linearGradient id="d" x1="8.409" x2="19.839" y1="44.802" y2="33.095" gradientUnits="userSpaceOnUse"><stop stop-color="#32A071"/><stop offset=".069" stop-color="#2DA771"/><stop offset=".476" stop-color="#15CF74"/><stop offset=".801" stop-color="#06E775"/><stop offset="1" stop-color="#00F076"/></linearGradient></defs></svg>