<svg xmlns="http://www.w3.org/2000/svg" width="742" height="517" version="1.2"><style>.s0{fill:#ee3420}</style><g id="Layer 1"><path d="M50.8 366c-12.3 0-22-2.5-29-7.5-9.1-6.4-14.2-17.5-15.1-33.3-.5-7.5-.7-14.8-.7-22q0-30.5 4.2-70.5c2.6-25 6.3-44.1 11.3-57.4 2-5.8 5.2-11 9.6-15.8 9.5-10.4 25.9-15.6 49.1-15.6q29.2 0 47.4 15.6a47 47 0 0 1 17 25.8c.8 3.4 1.3 6.9 1.3 10.4 0 20.7-9.4 35.6-28.1 44.7a59.8 59.8 0 0 1 24.7 21.4 60 60 0 0 1 9.3 31.4q0 26.4-17.4 43.5-15.2 14.9-37.8 22.1c-15 4.8-30.3 7.2-45.8 7.2zm25.4-130.2a49 49 0 0 0 27.5-41.5c0-15.1-10.7-22.6-32-22.6a78 78 0 0 1 4.4 21.4c.4 6.6.6 12.6.6 17.9 0 9.1-.2 17.4-.5 24.8zM63.1 337.1A38.4 38.4 0 0 0 93.5 319a55.8 55.8 0 0 0 8.1-29.6c0-5.3-1-10.6-3-15.8a31.4 31.4 0 0 0-9.1-13.3c-4.3-3.7-9-5.5-14.3-5.5a408.6 408.6 0 0 1-12.1 82.3zm229.8 30.7c-6.7 0-12.3-1.9-16.8-5.6a39.8 39.8 0 0 1-10.6-14.9 89.8 89.8 0 0 1-5.6-21.6c-10.4 24.2-25.7 36.3-46 36.3q-26.2 0-36.9-20.7-2.2-4.7-3.8-9.7-1.7-4.9-2.7-10-1.1-5.1-1.5-10.3-.5-5.2-.3-10.4c0-4.3.2-8.6.6-13 2-23.6 8.5-43.3 19.3-59.3a55.7 55.7 0 0 1 63.4-24.1q2.8 1 5.4 2.5 2.6 1.4 4.9 3.2 2.4 1.9 4.4 4.1 2 2.2 3.6 4.7c1.9-4.7 4.6-8.5 8.2-11.4 3.7-2.9 9-4.3 16.2-4.3 9.4 0 15.5 2.4 18.4 7.3 4.7 8.2 7.1 24 7.1 47.1 0 26.7-3.6 51.8-10.6 75.3 8.6-7.4 17.9-18.9 27.7-34.6 10-15.8 17.2-28.9 21.6-39.5 1.9-4.9 3.6-8.5 4.9-10.7 1.4-2.3 2.6-3.7 3.5-4.3q1.5-.9 3-.9c1.8 0 2.8 1.3 2.8 4 0 3.2-1 7.9-2.8 14q-5.8 18.7-15.4 40.5c-8 18.3-16.8 33.3-26.3 44.9-11.5 14.3-23.5 21.4-35.7 21.4zm-65.6-35.2q10.2 0 21.9-30.4a256.3 256.3 0 0 0 15.4-63.5c-4.2-5.3-9.1-8-15-8-9.4 0-17.1 5.7-22.9 17.2a114.6 114.6 0 0 0-11 36.9 145 145 0 0 0-1.4 18.8c0 19.4 4.3 29 13 29z" class="s0"/><path d="M390.5 425.8c-17 0-25.4-7-25.4-21.1 0-14.2 6.1-26.8 18.3-37.7a225 225 0 0 1 39.9-27.9l5.7-39.7c-10.6 23.3-24.3 34.9-41.4 34.9a29.1 29.1 0 0 1-24.9-13.2q-9.3-13.2-9.3-39.3c0-6.2.3-12.9 1.1-20.3 2.5-28.3 7.3-47.2 14.4-56.5 3.1-4.1 8.7-6.1 17-6.1 7.7 0 12.7 1.9 15.2 5.8 3.8 6.1 5.8 18.6 5.8 37.4 0 20.6-2.8 41.8-8.3 63.6 5.8-2.4 13.1-12.3 21.9-29.5a185 185 0 0 0 12.5-33.1c3-10.3 5-18.1 5.8-23.2a47 47 0 0 1 6.8-19.3c3.4-5 11.6-7.5 24.6-7.6 4.5 0 8.3.8 11.3 2.4a14 14 0 0 1 6.7 8.1c1.5 3.9 2.6 8.6 3.4 14.3q2.7 19.2 2.7 39.9 0 18.9-1.9 38.7 5.1-3.6 9.6-7.8 4.6-4.2 8.5-8.9 4-4.8 7.3-10 3.4-5.2 6-10.8c2.1-4.9 3.8-8.5 5.1-10.7q3.1-5.2 6.5-5.2c1.7 0 2.5 1.1 2.5 3.3a58 58 0 0 1-6.2 23.3 131 131 0 0 1-42.1 47.8c-5 30.3-15.3 55.3-30.7 75a80 80 0 0 1-30.1 25 83 83 0 0 1-38.3 8.4zm-.3-21.8c11.9 0 21.3-13.6 28.3-40.7-20.9 13.9-31.3 26.3-31.3 37.2q0 3.5 3 3.5z" class="s0"/><path d="M558.6 367.8c-24.1 0-36.2-24.8-36.2-74.3 0-18.7 1.9-43.9 5.8-75.7l-5.4-.3q-12.9-.9-12.9-9.6c0-6.6 7.1-10.6 21.4-12.1q5.8-26.5 13.2-34.1c5.1-5 12.1-7.6 21.1-7.6 8.9 0 15.4 3.5 19.3 10.3a66 66 0 0 1 5.9 31.7c17.7 1.7 26.5 5.6 26.5 11.8 0 5.8-5.3 9-15.8 9.4l-11 .5q-2.6 73.6-15.2 115.2 5.4-3.1 10.3-6.9 4.9-3.8 9.3-8.2 4.4-4.4 8.2-9.3 3.8-4.9 7-10.2a278.3 278.3 0 0 0 21.5-39.5c2-4.9 3.6-8.5 5-10.7a13 13 0 0 1 3.5-4.3c1-.6 2-.9 2.9-.9 1.9 0 2.9 1.3 2.9 4 0 3.2-1 7.9-3 14-11.2 34.9-25.6 62-43.4 81.3q-23.3 25.5-40.9 25.5z" class="s0"/><path d="M659.6 367.8c-12.8 0-21.9-7.3-27.3-22-4.1-11-6.2-25.6-6.2-43.6 0-9.7.8-20.2 2.2-31.4 3.7-30 9.2-50 16.4-60.1 3.7-4.9 10.4-7.4 20.2-7.4 9.1 0 15.2 2.4 18.1 7.1 4.4 7.5 6.6 21.2 6.6 41.3q0 39.5-13.2 81.3c8.6-7.4 17.9-18.9 27.7-34.6 10-15.8 17.1-28.9 21.6-39.5 1.9-4.9 3.6-8.5 4.9-10.7 1.4-2.3 2.6-3.7 3.5-4.3q1.5-.9 3-.9c1.8 0 2.8 1.3 2.8 4 0 3.2-1 7.9-3 14-12.1 37.7-25.9 66.2-41.5 85.4-11.5 14.3-23.5 21.4-35.8 21.4zm6.5-175.4c-3.5 0-7.1-.7-10.7-2.2a16.8 16.8 0 0 1-11.5-16.8 23 23 0 0 1 9.3-19.4q3-2.2 6.4-3.7 3.4-1.4 7.1-1.9 3.7-.5 7.4 0 3.6.4 7.1 1.8c7.8 3.1 11.7 9.1 11.7 17.9 0 5.7-1.6 10.6-4.8 14.6-5.1 6.5-12.4 9.7-22 9.7z" class="s0"/><path d="M575.8 479.7a15 15 0 0 0-1.9-3.8l-1.2-1.6-1.5-1.3q-.8-.6-1.7-1l-1.8-.8q-1.9-.6-4.3-.6-2 0-3.9.5-1.9.6-3.5 1.7-1.6 1-2.9 2.6-1.2 1.5-2 3.3a23 23 0 0 0-1.8 9.7c0 3.8.6 7.1 1.8 9.7q1.9 4 5.2 6.1c2.1 1.3 4.6 2 7.4 2a13 13 0 0 0 6.7-1.6c2-1 3.4-2.5 4.5-4.4 1.1-1.9 1.6-4.2 1.6-6.8l1.8.3h-13.5v-5.9h18.6v5.4c0 4-.8 7.5-2.5 10.4-1.7 2.9-4 5.2-7 6.8-3 1.5-6.4 2.3-10.2 2.3-4.3 0-8.1-1-11.3-2.9q-4.8-3-7.5-8.4c-1.8-3.7-2.7-8-2.7-13q0-5.7 1.5-10.2c1.1-3 2.6-5.5 4.5-7.6 1.9-2.1 4.1-3.7 6.7-4.9 2.6-1.1 5.4-1.6 8.5-1.6q3.8 0 7.1 1.1 1.6.5 3.1 1.3t2.8 1.9q1.3 1 2.4 2.3 1.1 1.3 2 2.7a19 19 0 0 1 2.3 6.3zm-86-15v47.4h-6.5l-24.1-34.8h-.5v34.8h-7.1v-47.4h6.6l24.1 34.8h.4v-34.8zm-92.1 0v47.4h-7.1v-47.4zm-92 0 13.2 38.6h.5l13.2-38.6h7.7l-17 47.4H315l-17.1-47.4zm-58 0v47.4h-7.2v-47.4zm-87.4 47.4v-47.4h7.2v41.2h21.4v6.2zM344.5 30.4l7.8-7.8a11 11 0 0 0-15.6 0zM221.3 138.1a11 11 0 0 0 15.5 15.5zm230.8 15.5a11 11 0 0 0 7.8 3.5c3 0 5.9-1.1 8-3.2 2.1-2.1 3.3-5 3.2-7.9 0-3-1.2-5.9-3.4-7.9zm-186.4-28.9c2.2-2 3.4-4.9 3.4-7.9.1-2.9-1.1-5.8-3.2-7.9-2.1-2.1-5-3.2-8-3.2a11 11 0 0 0-7.8 3.5zm42.1-73.2a10.8 10.8 0 0 0 .3 15.3c2 2 4.7 3.2 7.6 3.2 2.9.1 5.6-1 7.7-3zM365.6 67c2 2.4 4.9 3.8 7.9 3.9 3.1.1 6.1-1 8.3-3.2 2.2-2.2 3.3-5.2 3.2-8.3-.1-3-1.5-5.9-3.9-7.9zm73.2 42.2a11 11 0 0 0-15.5 15.5zm-202 44.4 28.9-28.9-15.6-15.5-28.8 28.9zM323.4 67l28.9-28.8-15.6-15.6-28.9 28.9zm13.3-28.8L365.6 67l15.5-15.5-28.8-28.9zm86.6 86.5 28.8 28.9 15.6-15.5-28.9-28.9zm-78.8-94.3 7.8-7.8a11 11 0 0 0-15.6 0zM221.3 138.1a11 11 0 0 0 15.5 15.5zm230.8 15.5a11 11 0 0 0 7.8 3.5c3 0 5.9-1.1 8-3.2 2.1-2.1 3.3-5 3.2-7.9 0-3-1.2-5.9-3.4-7.9zm-186.4-28.9c2.2-2 3.4-4.9 3.4-7.9.1-2.9-1.1-5.8-3.2-7.9-2.1-2.1-5-3.2-8-3.2a11 11 0 0 0-7.8 3.5zm42.1-73.2a10.8 10.8 0 0 0 .3 15.3c2 2 4.7 3.2 7.6 3.2 2.9.1 5.6-1 7.7-3zM365.6 67c2 2.4 4.9 3.8 7.9 3.9 3.1.1 6.1-1 8.3-3.2 2.2-2.2 3.3-5.2 3.2-8.3-.1-3-1.5-5.9-3.9-7.9zm73.2 42.2a11 11 0 0 0-15.5 15.5zm-202 44.4 28.9-28.9-15.6-15.5-28.8 28.9zM323.4 67l28.9-28.8-15.6-15.6-28.9 28.9zm13.3-28.8L365.6 67l15.5-15.5-28.8-28.9zm86.6 86.5 28.8 28.9 15.6-15.5-28.9-28.9z" style="fill:#16181e"/></g></svg>