<svg width="72" height="200" viewBox="0 0 72 200" fill="none" xmlns="http://www.w3.org/2000/svg">
<g opacity="0.5">
<circle cx="56.5" cy="119.5" r="2.5" fill="#E3B9AB"/>
<circle cx="69.5" cy="119.5" r="2.5" fill="#E3B9AB"/>
<circle cx="56.5" cy="106.5" r="2.5" fill="#E3B9AB"/>
<circle cx="69.5" cy="106.5" r="2.5" fill="#E3B9AB"/>
<circle cx="56.5" cy="145.5" r="2.5" fill="#E3B9AB"/>
<circle cx="69.5" cy="145.5" r="2.5" fill="#E3B9AB"/>
<circle cx="56.5" cy="132.5" r="2.5" fill="#E3B9AB"/>
<circle cx="69.5" cy="132.5" r="2.5" fill="#E3B9AB"/>
<circle cx="56.5" cy="171.5" r="2.5" fill="#E3B9AB"/>
<circle cx="69.5" cy="171.5" r="2.5" fill="#E3B9AB"/>
<circle cx="56.5" cy="158.5" r="2.5" fill="#E3B9AB"/>
<circle cx="69.5" cy="158.5" r="2.5" fill="#E3B9AB"/>
<circle cx="56.5" cy="197.5" r="2.5" fill="#E3B9AB"/>
<circle cx="69.5" cy="197.5" r="2.5" fill="#E3B9AB"/>
<circle cx="56.5" cy="184.5" r="2.5" fill="#E3B9AB"/>
<circle cx="69.5" cy="184.5" r="2.5" fill="#E3B9AB"/>
<circle cx="29.5" cy="119.5" r="2.5" fill="#E3B9AB"/>
<circle cx="42.5" cy="119.5" r="2.5" fill="#E3B9AB"/>
<circle cx="29.5" cy="106.5" r="2.5" fill="#E3B9AB"/>
<circle cx="42.5" cy="106.5" r="2.5" fill="#E3B9AB"/>
<circle cx="29.5" cy="145.5" r="2.5" fill="#E3B9AB"/>
<circle cx="42.5" cy="145.5" r="2.5" fill="#E3B9AB"/>
<circle cx="29.5" cy="132.5" r="2.5" fill="#E3B9AB"/>
<circle cx="42.5" cy="132.5" r="2.5" fill="#E3B9AB"/>
<circle cx="29.5" cy="171.5" r="2.5" fill="#E3B9AB"/>
<circle cx="42.5" cy="171.5" r="2.5" fill="#E3B9AB"/>
<circle cx="29.5" cy="158.5" r="2.5" fill="#E3B9AB"/>
<circle cx="42.5" cy="158.5" r="2.5" fill="#E3B9AB"/>
<circle cx="29.5" cy="197.5" r="2.5" fill="#E3B9AB"/>
<circle cx="42.5" cy="197.5" r="2.5" fill="#E3B9AB"/>
<circle cx="29.5" cy="184.5" r="2.5" fill="#E3B9AB"/>
<circle cx="42.5" cy="184.5" r="2.5" fill="#E3B9AB"/>
<circle cx="2.5" cy="119.5" r="2.5" fill="#E3B9AB"/>
<circle cx="15.5" cy="119.5" r="2.5" fill="#E3B9AB"/>
<circle cx="2.5" cy="106.5" r="2.5" fill="#E3B9AB"/>
<circle cx="15.5" cy="106.5" r="2.5" fill="#E3B9AB"/>
<circle cx="2.5" cy="145.5" r="2.5" fill="#E3B9AB"/>
<circle cx="15.5" cy="145.5" r="2.5" fill="#E3B9AB"/>
<circle cx="2.5" cy="132.5" r="2.5" fill="#E3B9AB"/>
<circle cx="15.5" cy="132.5" r="2.5" fill="#E3B9AB"/>
<circle cx="2.5" cy="171.5" r="2.5" fill="#E3B9AB"/>
<circle cx="15.5" cy="171.5" r="2.5" fill="#E3B9AB"/>
<circle cx="2.5" cy="158.5" r="2.5" fill="#E3B9AB"/>
<circle cx="15.5" cy="158.5" r="2.5" fill="#E3B9AB"/>
<circle cx="2.5" cy="197.5" r="2.5" fill="#E3B9AB"/>
<circle cx="15.5" cy="197.5" r="2.5" fill="#E3B9AB"/>
<circle cx="2.5" cy="184.5" r="2.5" fill="#E3B9AB"/>
<circle cx="15.5" cy="184.5" r="2.5" fill="#E3B9AB"/>
<circle cx="56.5" cy="15.5" r="2.5" fill="#E3B9AB"/>
<circle cx="69.5" cy="15.5" r="2.5" fill="#E3B9AB"/>
<circle cx="56.5" cy="2.5" r="2.5" fill="#E3B9AB"/>
<circle cx="69.5" cy="2.5" r="2.5" fill="#E3B9AB"/>
<circle cx="56.5" cy="41.5" r="2.5" fill="#E3B9AB"/>
<circle cx="69.5" cy="41.5" r="2.5" fill="#E3B9AB"/>
<circle cx="56.5" cy="28.5" r="2.5" fill="#E3B9AB"/>
<circle cx="69.5" cy="28.5" r="2.5" fill="#E3B9AB"/>
<circle cx="56.5" cy="67.5" r="2.5" fill="#E3B9AB"/>
<circle cx="69.5" cy="67.5" r="2.5" fill="#E3B9AB"/>
<circle cx="56.5" cy="54.5" r="2.5" fill="#E3B9AB"/>
<circle cx="69.5" cy="54.5" r="2.5" fill="#E3B9AB"/>
<circle cx="56.5" cy="93.5" r="2.5" fill="#E3B9AB"/>
<circle cx="69.5" cy="93.5" r="2.5" fill="#E3B9AB"/>
<circle cx="56.5" cy="80.5" r="2.5" fill="#E3B9AB"/>
<circle cx="69.5" cy="80.5" r="2.5" fill="#E3B9AB"/>
<circle cx="29.5" cy="15.5" r="2.5" fill="#E3B9AB"/>
<circle cx="42.5" cy="15.5" r="2.5" fill="#E3B9AB"/>
<circle cx="29.5" cy="2.5" r="2.5" fill="#E3B9AB"/>
<circle cx="42.5" cy="2.5" r="2.5" fill="#E3B9AB"/>
<circle cx="29.5" cy="41.5" r="2.5" fill="#E3B9AB"/>
<circle cx="42.5" cy="41.5" r="2.5" fill="#E3B9AB"/>
<circle cx="29.5" cy="28.5" r="2.5" fill="#E3B9AB"/>
<circle cx="42.5" cy="28.5" r="2.5" fill="#E3B9AB"/>
<circle cx="29.5" cy="67.5" r="2.5" fill="#E3B9AB"/>
<circle cx="42.5" cy="67.5" r="2.5" fill="#E3B9AB"/>
<circle cx="29.5" cy="54.5" r="2.5" fill="#E3B9AB"/>
<circle cx="42.5" cy="54.5" r="2.5" fill="#E3B9AB"/>
<circle cx="29.5" cy="93.5" r="2.5" fill="#E3B9AB"/>
<circle cx="42.5" cy="93.5" r="2.5" fill="#E3B9AB"/>
<circle cx="29.5" cy="80.5" r="2.5" fill="#E3B9AB"/>
<circle cx="42.5" cy="80.5" r="2.5" fill="#E3B9AB"/>
<circle cx="2.5" cy="15.5" r="2.5" fill="#E3B9AB"/>
<circle cx="15.5" cy="15.5" r="2.5" fill="#E3B9AB"/>
<circle cx="2.5" cy="2.5" r="2.5" fill="#E3B9AB"/>
<circle cx="15.5" cy="2.5" r="2.5" fill="#E3B9AB"/>
<circle cx="2.5" cy="41.5" r="2.5" fill="#E3B9AB"/>
<circle cx="15.5" cy="41.5" r="2.5" fill="#E3B9AB"/>
<circle cx="2.5" cy="28.5" r="2.5" fill="#E3B9AB"/>
<circle cx="15.5" cy="28.5" r="2.5" fill="#E3B9AB"/>
<circle cx="2.5" cy="67.5" r="2.5" fill="#E3B9AB"/>
<circle cx="15.5" cy="67.5" r="2.5" fill="#E3B9AB"/>
<circle cx="2.5" cy="54.5" r="2.5" fill="#E3B9AB"/>
<circle cx="15.5" cy="54.5" r="2.5" fill="#E3B9AB"/>
<circle cx="2.5" cy="93.5" r="2.5" fill="#E3B9AB"/>
<circle cx="15.5" cy="93.5" r="2.5" fill="#E3B9AB"/>
<circle cx="2.5" cy="80.5" r="2.5" fill="#E3B9AB"/>
<circle cx="15.5" cy="80.5" r="2.5" fill="#E3B9AB"/>
</g>
</svg>
