<svg width="30" height="30" viewBox="0 0 30 30" fill="none" xmlns="http://www.w3.org/2000/svg">
<g clip-path="url(#clip0_389_3553)">
<path d="M29.9469 24.2375L28.9228 21.4082H25.1098L24.0857 24.2375C24.0072 24.4545 24.0171 24.6936 24.1133 24.9033L26.2176 29.4878C26.3608 29.7999 26.6729 30 27.0164 30C27.3598 30 27.6719 29.7999 27.8152 29.4878L29.9193 24.9033C30.0155 24.6936 30.0254 24.4544 29.9469 24.2375Z" fill="#F4F1F1"/>
<path d="M29.9481 24.2375L28.924 21.4082H27.0176V30C27.3611 30 27.6731 29.7999 27.8163 29.4878L29.9205 24.9033C30.0167 24.6936 30.0266 24.4544 29.9481 24.2375Z" fill="#E7DFDD"/>
<path d="M21.4471 0H0.878906C0.393516 0 0 0.393516 0 0.878906V29.1211C0 29.6065 0.393516 30 0.878906 30H21.4471C21.9325 30 22.326 29.6065 22.326 29.1211V0.878906C22.326 0.393516 21.9325 0 21.4471 0Z" fill="#F4F1F1"/>
<path d="M21.4462 0H11.1621V30H21.4462C21.9316 30 22.3251 29.6065 22.3251 29.1211V0.878906C22.3251 0.393516 21.9316 0 21.4462 0Z" fill="#E7DFDD"/>
<path d="M19.5347 8.4187H13.9531C13.4677 8.4187 13.0742 8.02519 13.0742 7.53979C13.0742 7.0544 13.4677 6.66089 13.9531 6.66089H19.5347C20.0201 6.66089 20.4136 7.0544 20.4136 7.53979C20.4136 8.02519 20.0201 8.4187 19.5347 8.4187Z" fill="#38336B"/>
<path d="M19.5347 13.751H13.9531C13.4677 13.751 13.0742 13.3575 13.0742 12.8721C13.0742 12.3867 13.4677 11.9932 13.9531 11.9932H19.5347C20.0201 11.9932 20.4136 12.3867 20.4136 12.8721C20.4136 13.3575 20.0201 13.751 19.5347 13.751Z" fill="#38336B"/>
<path d="M19.5347 19.0833H13.9531C13.4677 19.0833 13.0742 18.6897 13.0742 18.2043C13.0742 17.719 13.4677 17.3254 13.9531 17.3254H19.5347C20.0201 17.3254 20.4136 17.719 20.4136 18.2043C20.4136 18.6897 20.0201 19.0833 19.5347 19.0833Z" fill="#38336B"/>
<path d="M19.5347 24.6199H13.9531C13.4677 24.6199 13.0742 24.2264 13.0742 23.741C13.0742 23.2556 13.4677 22.8621 13.9531 22.8621H19.5347C20.0201 22.8621 20.4136 23.2556 20.4136 23.741C20.4136 24.2264 20.0201 24.6199 19.5347 24.6199Z" fill="#38336B"/>
<path d="M4.94004 9.46808C4.70689 9.46808 4.48336 9.3755 4.31859 9.21062L3.06041 7.95243C2.71717 7.60919 2.71717 7.05272 3.06041 6.70948C3.40365 6.36624 3.96018 6.3663 4.30336 6.70948L4.94004 7.34616L6.98824 5.29796C7.33143 4.95472 7.88795 4.95472 8.23119 5.29796C8.57443 5.6412 8.57443 6.19767 8.23119 6.54091L5.56154 9.21062C5.39672 9.3755 5.17313 9.46808 4.94004 9.46808Z" fill="#90D960"/>
<path d="M4.94004 14.8004C4.70689 14.8004 4.48336 14.7078 4.31859 14.5429L3.06041 13.2847C2.71717 12.9415 2.71717 12.385 3.06041 12.0418C3.40365 11.6985 3.96018 11.6986 4.30336 12.0418L4.94004 12.6784L6.98824 10.6302C7.33143 10.287 7.88795 10.287 8.23119 10.6302C8.57443 10.9735 8.57443 11.5299 8.23119 11.8732L5.56154 14.5429C5.39672 14.7077 5.17313 14.8004 4.94004 14.8004Z" fill="#90D960"/>
<path d="M4.94004 20.1326C4.70689 20.1326 4.48336 20.04 4.31859 19.8751L3.06041 18.617C2.71717 18.2737 2.71717 17.7173 3.06041 17.374C3.40365 17.0308 3.96018 17.0308 4.30336 17.374L4.94004 18.0107L6.98824 15.9625C7.33143 15.6193 7.88795 15.6192 8.23119 15.9625C8.57443 16.3057 8.57443 16.8622 8.23119 17.2054L5.56154 19.8751C5.39672 20.04 5.17313 20.1326 4.94004 20.1326Z" fill="#90D960"/>
<path d="M29.9992 2.98301V21.2988C29.9992 21.7846 29.6055 22.1777 29.1203 22.1777H24.9121C24.4264 22.1777 24.0332 21.7846 24.0332 21.2988V2.98301C24.0332 1.33828 25.3715 0 27.0162 0C28.6609 0 29.9992 1.33828 29.9992 2.98301Z" fill="#FFDA2C"/>
<path d="M27.0176 0V22.1777H29.1217C29.6068 22.1777 30.0006 21.7846 30.0006 21.2988V2.98301C30.0006 1.33828 28.6623 0 27.0176 0Z" fill="#FEBF00"/>
<path d="M24.0332 5.56104H29.9992V7.31885H24.0332V5.56104Z" fill="#D20041"/>
<path d="M27.0176 5.56104H30.0006V7.31885H27.0176V5.56104Z" fill="#BA003A"/>
</g>
<defs>
<clipPath id="clip0_389_3553">
<rect width="30" height="30" fill="white"/>
</clipPath>
</defs>
</svg>
