<svg width="51" height="65" viewBox="0 0 51 65" fill="none" xmlns="http://www.w3.org/2000/svg">
<path d="M25.9628 64.4889C25.9628 64.4889 50.9628 42.2667 50.9628 25.6C50.9628 11.7929 39.7699 0.600037 25.9628 0.600037C12.1557 0.600037 0.962769 11.7929 0.962769 25.6C0.962769 42.2667 25.9628 64.4889 25.9628 64.4889Z" fill="#EE3420"/>
<path d="M6.59087 30.7292C5.85124 30.7292 5.26795 30.5789 4.84701 30.2782C4.2998 29.8934 3.99312 29.2259 3.939 28.2758C3.90894 27.8248 3.89691 27.3858 3.89691 26.9529C3.89691 25.7301 3.9811 24.317 4.14947 22.7135C4.30582 21.2101 4.52831 20.0616 4.82897 19.2618C4.94924 18.9131 5.14167 18.6004 5.40625 18.3117C5.97752 17.6863 6.9637 17.3737 8.35879 17.3737C9.52938 17.3737 10.4795 17.6863 11.2091 18.3117C11.7149 18.6989 12.0752 19.2456 12.2314 19.8632C12.2795 20.0676 12.3095 20.2781 12.3095 20.4885C12.3095 21.7333 11.7443 22.6293 10.6198 23.1765C11.2248 23.4592 11.7391 23.9048 12.1051 24.4633C12.463 25.0287 12.6566 25.6825 12.6643 26.3515C12.6643 27.4099 12.3155 28.2818 11.618 28.9673C11.0086 29.5646 10.251 30.0076 9.34497 30.2963C8.44297 30.5849 7.52294 30.7292 6.59087 30.7292ZM8.11825 22.8999C8.5917 22.6696 8.9948 22.3167 9.28562 21.8778C9.57645 21.4389 9.74436 20.9301 9.77191 20.4044C9.77191 19.4964 9.12849 19.0454 7.84765 19.0454C7.99578 19.4598 8.08485 19.893 8.11224 20.3322C8.13629 20.7291 8.14832 21.0899 8.14832 21.4086C8.14832 21.9558 8.13629 22.4549 8.11825 22.8999ZM7.33051 28.9914C7.70016 28.9698 8.0592 28.8597 8.37735 28.6702C8.6955 28.4808 8.96344 28.2177 9.15856 27.903C9.48408 27.3668 9.65282 26.7502 9.64563 26.123C9.64563 25.8043 9.5855 25.4856 9.46523 25.1729C9.35551 24.8633 9.1669 24.5876 8.91802 24.3731C8.65945 24.1507 8.37683 24.0424 8.05812 24.0424C7.98457 25.7125 7.74077 27.3708 7.33051 28.9914ZM21.1491 30.8375C20.7462 30.8375 20.4095 30.7232 20.1389 30.5007C19.8597 30.2556 19.6415 29.9488 19.5014 29.6047C19.3356 29.1874 19.2225 28.7511 19.1647 28.3058C18.5393 29.7611 17.6193 30.4887 16.3986 30.4887C15.3483 30.4887 14.6086 30.0738 14.1797 29.2439C14.0915 29.0555 14.0153 28.8611 13.9512 28.6606C13.883 28.4642 13.8289 28.2638 13.7888 28.0593C13.7447 27.8549 13.7146 27.6484 13.6986 27.4399C13.6786 27.2315 13.6725 27.023 13.6806 26.8145C13.6806 26.556 13.6926 26.2974 13.7166 26.0328C13.8369 24.6137 14.2278 23.4291 14.8772 22.4669C15.2645 21.8394 15.8481 21.3572 16.5374 21.0951C17.2267 20.8331 17.9833 20.8059 18.6896 21.0177C18.8019 21.0578 18.9101 21.1079 19.0144 21.1681C19.1186 21.2242 19.2168 21.2883 19.309 21.3605C19.4052 21.4366 19.4934 21.5188 19.5736 21.607C19.6538 21.6952 19.7259 21.7894 19.7901 21.8896C19.9043 21.607 20.0667 21.3785 20.2832 21.2041C20.5057 21.0297 20.8244 20.9456 21.2573 20.9456C21.8226 20.9456 22.1894 21.0899 22.3638 21.3845C22.6464 21.8776 22.7907 22.8277 22.7907 24.2168C22.7907 25.8224 22.5742 27.3317 22.1533 28.7448C22.6705 28.2998 23.2297 27.6083 23.819 26.6642C24.4203 25.7141 24.8533 24.9264 25.1179 24.289C25.2321 23.9943 25.3344 23.7778 25.4125 23.6455C25.4967 23.5072 25.5689 23.423 25.623 23.387C25.6831 23.3509 25.7433 23.3328 25.8034 23.3328C25.9116 23.3328 25.9718 23.411 25.9718 23.5734C25.9718 23.7658 25.9116 24.0484 25.8034 24.4152C25.5709 25.1649 25.2622 25.9767 24.8773 26.8506C24.3963 27.9511 23.8671 28.8531 23.2958 29.5506C22.6043 30.4105 21.8827 30.8375 21.1491 30.8375ZM17.2044 28.7208C17.6133 28.7208 18.0522 28.1114 18.5213 26.8927C18.9916 25.6646 19.3028 24.3814 19.4473 23.0743C19.1948 22.7556 18.9001 22.5932 18.5453 22.5932C17.9801 22.5932 17.5171 22.936 17.1683 23.6275C16.8242 24.3245 16.6006 25.0748 16.5068 25.8464C16.4543 26.221 16.4261 26.5986 16.4226 26.9769C16.4226 28.1435 16.6812 28.7208 17.2044 28.7208Z" fill="white"/>
<path d="M27.0181 34.3252C25.9958 34.3252 25.4907 33.9042 25.4907 33.0564C25.4907 32.2025 25.8575 31.4448 26.5911 30.7893C27.3279 30.145 28.1323 29.5824 28.9904 29.1116L29.3332 26.7243C28.6958 28.1254 27.872 28.823 26.8437 28.823C26.5473 28.8283 26.2544 28.7583 25.9925 28.6195C25.7306 28.4806 25.5083 28.2775 25.3464 28.0292C24.9736 27.5001 24.7871 26.7123 24.7871 25.666C24.7871 25.2932 24.8052 24.8903 24.8533 24.4453C25.0036 22.7435 25.2923 21.607 25.7192 21.0478C25.9056 20.8012 26.2424 20.681 26.7415 20.681C27.2045 20.681 27.5052 20.7952 27.6555 21.0297C27.884 21.3966 28.0043 22.1482 28.0043 23.2787C28.0043 24.5175 27.8359 25.7923 27.5052 27.1032C27.8539 26.9589 28.2929 26.3636 28.8221 25.3293C29.1356 24.6913 29.3873 24.0248 29.5737 23.3389C29.7541 22.7195 29.8744 22.2504 29.9225 21.9438C29.9719 21.5316 30.1115 21.1353 30.3314 20.7832C30.5359 20.4825 31.029 20.3322 31.8107 20.3262C32.0813 20.3262 32.3098 20.3743 32.4902 20.4705C32.6827 20.5744 32.8271 20.7491 32.8931 20.9576C32.9833 21.1921 33.0494 21.4747 33.0975 21.8175C33.2058 22.5872 33.2599 23.387 33.2599 24.2168C33.2599 24.9745 33.2218 25.7502 33.1456 26.5439C33.3501 26.3996 33.5425 26.2433 33.7229 26.0749C33.9073 25.9065 34.0777 25.7281 34.234 25.5397C34.3944 25.3473 34.5407 25.1469 34.673 24.9384C34.8093 24.7299 34.9296 24.5135 35.0338 24.289C35.1601 23.9943 35.2623 23.7778 35.3405 23.6455C35.4648 23.4371 35.5951 23.3328 35.7314 23.3328C35.8336 23.3328 35.8817 23.399 35.8817 23.5313C35.8569 24.0193 35.7299 24.4966 35.5089 24.9324C34.9143 26.0842 34.0448 27.0715 32.9773 27.8067C32.6766 29.6288 32.0572 31.1321 31.1312 32.3167C30.6616 32.9599 30.0396 33.4765 29.3212 33.82C28.6048 34.1699 27.8151 34.3431 27.0181 34.3252ZM27 33.0143C27.7156 33.0143 28.2809 32.1965 28.7018 30.5669C27.445 31.4027 26.8196 32.1484 26.8196 32.8038C26.8196 32.9441 26.8798 33.0143 27 33.0143Z" fill="white"/>
<path d="M37.1264 30.8375C35.6772 30.8375 34.9496 29.3462 34.9496 26.3696C34.9496 25.2451 35.0639 23.7297 35.2984 21.8175L34.9737 21.7994C34.4565 21.7634 34.198 21.5709 34.198 21.2222C34.198 20.8253 34.6249 20.5848 35.4848 20.4946C35.7173 19.4322 35.9819 18.7487 36.2786 18.444C36.5852 18.1434 37.0062 17.987 37.5474 17.987C38.0826 17.987 38.4734 18.1975 38.7079 18.6064C38.982 19.2027 39.1039 19.8576 39.0627 20.5126C40.1271 20.6148 40.6563 20.8493 40.6563 21.2222C40.6563 21.5709 40.3376 21.7634 39.7062 21.7874L39.0447 21.8175C38.9405 24.768 38.6358 27.0771 38.1307 28.7448C38.3471 28.6205 38.5536 28.4822 38.75 28.3299C38.9465 28.1776 39.1329 28.0132 39.3093 27.8368C39.4857 27.6604 39.65 27.474 39.8024 27.2776C39.9547 27.0811 40.095 26.8767 40.2233 26.6642C40.7176 25.9086 41.15 25.1143 41.5162 24.289C41.6364 23.9943 41.7326 23.7778 41.8168 23.6455C41.8676 23.5452 41.9394 23.457 42.0273 23.387C42.0874 23.3509 42.1476 23.3328 42.2017 23.3328C42.3159 23.3328 42.3761 23.411 42.3761 23.5734C42.3761 23.7658 42.3159 24.0484 42.1957 24.4152C41.5222 26.5139 40.6563 28.1435 39.5859 29.3041C38.6518 30.3263 37.832 30.8375 37.1264 30.8375Z" fill="white"/>
<path d="M43.1999 30.8375C42.4302 30.8375 41.883 30.3985 41.5583 29.5145C41.3117 28.8531 41.1854 27.9751 41.1854 26.8927C41.1854 26.3094 41.2335 25.678 41.3177 25.0045C41.5402 23.2005 41.8709 21.9979 42.3039 21.3905C42.5264 21.0959 42.9293 20.9456 43.5186 20.9456C44.0658 20.9456 44.4326 21.0899 44.607 21.3725C44.8716 21.8235 45.0039 22.6473 45.0039 23.856C45.0039 25.4395 44.7393 27.0691 44.2101 28.7448C44.7273 28.2998 45.2865 27.6083 45.8758 26.6642C46.4771 25.7141 46.9041 24.9264 47.1747 24.289C47.2889 23.9943 47.3912 23.7778 47.4693 23.6455C47.5535 23.5072 47.6257 23.423 47.6798 23.387C47.7399 23.3509 47.8001 23.3328 47.8602 23.3328C47.9684 23.3328 48.0286 23.411 48.0286 23.5734C48.0286 23.7658 47.9684 24.0484 47.8482 24.4152C47.1206 26.6823 46.2907 28.396 45.3526 29.5506C44.6611 30.4105 43.9395 30.8375 43.1999 30.8375ZM43.5907 20.2901C43.3803 20.2901 43.1638 20.248 42.9473 20.1578C42.7374 20.0883 42.556 19.9519 42.4311 19.7694C42.3062 19.5869 42.2446 19.3684 42.2558 19.1476C42.2469 18.9223 42.2931 18.6982 42.3906 18.4949C42.4881 18.2915 42.6338 18.1151 42.815 17.981C42.9353 17.8928 43.0636 17.8186 43.1999 17.7585C43.3362 17.7024 43.4785 17.6643 43.6268 17.6443C43.7752 17.6242 43.9235 17.6242 44.0718 17.6443C44.2161 17.6603 44.3584 17.6964 44.4988 17.7525C44.9678 17.9389 45.2023 18.2997 45.2023 18.8289C45.2023 19.1716 45.1061 19.4663 44.9137 19.7068C44.607 20.0977 44.168 20.2901 43.5907 20.2901Z" fill="white"/>
<path d="M24.252 10.5486L24.721 10.0795C24.6595 10.0177 24.5864 9.96864 24.5059 9.93517C24.4255 9.90169 24.3391 9.88446 24.252 9.88446C24.1648 9.88446 24.0785 9.90169 23.998 9.93517C23.9175 9.96864 23.8444 10.0177 23.7829 10.0795L24.252 10.5486ZM16.8436 17.0249C16.7368 17.1516 16.6815 17.3137 16.6885 17.4793C16.6956 17.6448 16.7645 17.8017 16.8816 17.9189C16.9988 18.036 17.1557 18.105 17.3212 18.112C17.4868 18.1191 17.6489 18.0637 17.7756 17.9569L16.8436 17.0249ZM30.7223 17.9569C30.7825 18.0216 30.855 18.0735 30.9355 18.1096C31.0161 18.1458 31.103 18.1654 31.1913 18.1674C31.3717 18.1674 31.5461 18.1013 31.6724 17.975C31.7987 17.8487 31.8708 17.6743 31.8648 17.4999C31.8648 17.3195 31.7926 17.1452 31.6604 17.0249L30.7223 17.9569ZM19.5135 16.2191C19.6458 16.0988 19.7179 15.9244 19.7179 15.7441C19.7239 15.5697 19.6518 15.3953 19.5255 15.269C19.3992 15.1427 19.2248 15.0766 19.0444 15.0766C18.9562 15.0786 18.8692 15.0982 18.7886 15.1344C18.7081 15.1705 18.6356 15.2224 18.5754 15.287L19.5135 16.2191ZM22.0451 11.8174C21.9857 11.8789 21.939 11.9515 21.9078 12.0311C21.8766 12.1107 21.8613 12.1956 21.863 12.2811C21.8647 12.3666 21.8832 12.4509 21.9176 12.5292C21.9519 12.6075 22.0014 12.6783 22.0631 12.7374C22.1834 12.8577 22.3457 12.9298 22.5201 12.9298C22.6945 12.9358 22.8569 12.8697 22.9831 12.7494L22.0451 11.8174ZM25.5208 12.7494C25.641 12.8937 25.8154 12.9779 25.9958 12.9839C26.1822 12.99 26.3626 12.9238 26.4949 12.7915C26.6272 12.6592 26.6934 12.4788 26.6873 12.2924C26.6813 12.112 26.5971 11.9376 26.4528 11.8174L25.5208 12.7494ZM29.9225 15.287C29.7958 15.1803 29.6336 15.1249 29.4681 15.132C29.3026 15.139 29.1457 15.208 29.0285 15.3251C28.9114 15.4423 28.8424 15.5992 28.8354 15.7647C28.8283 15.9302 28.8837 16.0924 28.9904 16.2191L29.9225 15.287ZM17.7756 17.9569L19.5135 16.2191L18.5754 15.287L16.8436 17.0249L17.7756 17.9569ZM22.9831 12.7494L24.721 11.0176L23.7829 10.0795L22.0451 11.8174L22.9831 12.7494ZM23.7829 11.0176L25.5208 12.7494L26.4528 11.8174L24.721 10.0795L23.7829 11.0176ZM28.9904 16.2191L30.7223 17.9569L31.6604 17.0249L29.9225 15.287L28.9904 16.2191ZM24.252 10.5486L24.721 10.0795C24.6595 10.0177 24.5864 9.96864 24.5059 9.93517C24.4255 9.90169 24.3391 9.88446 24.252 9.88446C24.1648 9.88446 24.0785 9.90169 23.998 9.93517C23.9175 9.96864 23.8444 10.0177 23.7829 10.0795L24.252 10.5486ZM16.8436 17.0249C16.7368 17.1516 16.6815 17.3137 16.6885 17.4793C16.6956 17.6448 16.7645 17.8017 16.8816 17.9189C16.9988 18.036 17.1557 18.105 17.3212 18.112C17.4868 18.1191 17.6489 18.0637 17.7756 17.9569L16.8436 17.0249ZM30.7223 17.9569C30.7825 18.0216 30.855 18.0735 30.9355 18.1096C31.0161 18.1458 31.103 18.1654 31.1913 18.1674C31.3717 18.1674 31.5461 18.1013 31.6724 17.975C31.7987 17.8487 31.8708 17.6743 31.8648 17.4999C31.8648 17.3195 31.7926 17.1452 31.6604 17.0249L30.7223 17.9569ZM19.5135 16.2191C19.6458 16.0988 19.7179 15.9244 19.7179 15.7441C19.7239 15.5697 19.6518 15.3953 19.5255 15.269C19.3992 15.1427 19.2248 15.0766 19.0444 15.0766C18.9562 15.0786 18.8692 15.0982 18.7886 15.1344C18.7081 15.1705 18.6356 15.2224 18.5754 15.287L19.5135 16.2191ZM22.0451 11.8174C21.9857 11.8789 21.939 11.9515 21.9078 12.0311C21.8766 12.1107 21.8613 12.1956 21.863 12.2811C21.8647 12.3666 21.8832 12.4509 21.9176 12.5292C21.9519 12.6075 22.0014 12.6783 22.0631 12.7374C22.1834 12.8577 22.3457 12.9298 22.5201 12.9298C22.6945 12.9358 22.8569 12.8697 22.9831 12.7494L22.0451 11.8174ZM25.5208 12.7494C25.641 12.8937 25.8154 12.9779 25.9958 12.9839C26.1822 12.99 26.3626 12.9238 26.4949 12.7915C26.6272 12.6592 26.6934 12.4788 26.6873 12.2924C26.6813 12.112 26.5971 11.9376 26.4528 11.8174L25.5208 12.7494ZM29.9225 15.287C29.7958 15.1803 29.6336 15.1249 29.4681 15.132C29.3026 15.139 29.1457 15.208 29.0285 15.3251C28.9114 15.4423 28.8424 15.5992 28.8354 15.7647C28.8283 15.9302 28.8837 16.0924 28.9904 16.2191L29.9225 15.287ZM17.7756 17.9569L19.5135 16.2191L18.5754 15.287L16.8436 17.0249L17.7756 17.9569ZM22.9831 12.7494L24.721 11.0176L23.7829 10.0795L22.0451 11.8174L22.9831 12.7494ZM23.7829 11.0176L25.5208 12.7494L26.4528 11.8174L24.721 10.0795L23.7829 11.0176ZM28.9904 16.2191L30.7223 17.9569L31.6604 17.0249L29.9225 15.287L28.9904 16.2191Z" fill="white"/>
<path d="M39.2641 39.7579H40.0373C40.0214 39.871 39.9892 39.969 39.9412 40.052C39.8646 40.1842 39.7725 40.2804 39.6444 40.3445L39.6443 40.3444L39.6392 40.3472C39.4992 40.4241 39.341 40.4619 39.1813 40.4565L39.1813 40.4564H39.1762C38.9785 40.4564 38.8068 40.4073 38.6648 40.3196C38.5165 40.225 38.396 40.086 38.3055 39.8958C38.2216 39.7136 38.1759 39.4734 38.1759 39.1845H38.1759L38.1758 39.1796C38.1678 38.936 38.2127 38.6937 38.3073 38.4692C38.3447 38.3855 38.391 38.3093 38.4462 38.2401C38.5059 38.1668 38.5708 38.1091 38.6406 38.0654L38.6407 38.0656L38.6461 38.0618C38.7178 38.0126 38.7964 37.9741 38.8824 37.9466C38.9698 37.9239 39.0597 37.9125 39.1523 37.9125C39.2643 37.9125 39.3606 37.9261 39.4429 37.9511L39.5787 38.0114C39.6146 38.0274 39.6488 38.0473 39.6814 38.0712L39.7848 38.1609L39.8693 38.2735C39.9252 38.3547 39.9694 38.4434 40.0005 38.5369L40.0347 38.6395H40.1429H40.726H40.9044L40.8738 38.4637C40.8398 38.2688 40.7715 38.0816 40.6719 37.9107L40.672 37.9106L40.6685 37.9051C40.6169 37.8249 40.5597 37.7477 40.497 37.6736C40.4326 37.5974 40.3619 37.5295 40.285 37.47C40.2084 37.4055 40.1259 37.3497 40.0377 37.3026C39.9501 37.2559 39.8594 37.2178 39.7656 37.1884C39.5736 37.1245 39.3688 37.0932 39.1523 37.0932C38.888 37.0932 38.6439 37.136 38.4148 37.2329L38.4148 37.2328L38.4104 37.2349C38.1849 37.3389 37.9925 37.4786 37.8268 37.6619C37.6611 37.845 37.5317 38.0617 37.4377 38.318L37.4376 38.318L37.4362 38.3222C37.3503 38.5799 37.3087 38.8679 37.3087 39.1845C37.3087 39.6021 37.3839 39.9688 37.5395 40.2886L37.5402 40.2901C37.6955 40.6006 37.9134 40.8459 38.194 41.0212L38.194 41.0213L38.1969 41.023C38.4784 41.1901 38.809 41.2757 39.1762 41.2757C39.5015 41.2757 39.7963 41.2071 40.0582 41.0761L40.0582 41.0762L40.0617 41.0743C40.3274 40.9326 40.5309 40.7285 40.6797 40.4746C40.8321 40.2145 40.9 39.9071 40.9 39.5679V39.1365V38.9865H40.75H39.2641H39.1141V39.1365V39.6079V39.7579H39.2641ZM34.4226 37.2912V37.1412H34.2726H33.7054H33.5554V37.2912V39.6373L31.8715 37.2058L31.8268 37.1412H31.7482H31.221H31.071V37.2912V41.0778V41.2278H31.221H31.7882H31.9382V41.0778V38.7201L33.63 41.1632L33.6748 41.2278H33.7534H34.2726H34.4226V41.0778V37.2912ZM28.0651 37.2912V37.1412H27.9151H27.3479H27.1979V37.2912V41.0778V41.2278H27.3479H27.9151H28.0651V41.0778V37.2912ZM21.7074 37.2426L21.6727 37.1412H21.5655H20.9424H20.7288L20.8013 37.3421L22.1674 41.1287L22.2031 41.2278H22.3085H22.9715H23.0771L23.1127 41.1284L24.4708 37.3418L24.5427 37.1412H24.3296H23.7145H23.6072L23.5725 37.2426L22.64 39.9696L21.7074 37.2426ZM18.0821 37.2912V37.1412H17.9321H17.3569H17.2069V37.2912V41.0778V41.2278H17.3569H17.9321H18.0821V41.0778V37.2912ZM11.8 41.0778V41.2278H11.95H14.2348H14.3848V41.0778V40.5825V40.4325H14.2348H12.6752V37.2912V37.1412H12.5252H11.95H11.8V37.2912V41.0778Z" fill="white" stroke="white" stroke-width="0.3"/>
</svg>
