<svg xmlns="http://www.w3.org/2000/svg" width="50" height="52" fill="none"><path fill="#EE421D" d="M47.76 35.794c1.471-1.472 1.963-3.532 1.316-5.511a.813.813 0 0 0-1.347-.322l-2.937 2.937-1.41-.378-.377-1.41 2.937-2.936a.813.813 0 0 0-.322-1.347c-1.98-.648-4.04-.156-5.511 1.316a5.43 5.43 0 0 0-1.503 2.959 20.53 20.53 0 0 0-9.382-5.044 10.78 10.78 0 0 0 5.907-7.745h.152a2.26 2.26 0 0 0 2.255-2.255 2.26 2.26 0 0 0-1.702-2.187v-.076c0-4.737-2.91-8.918-7.297-10.58a2.24 2.24 0 0 0-.48-1.056c-.795-.97-2.335-1.266-3.487-1.344a1 1 0 0 0-.11 0c-1.152.078-2.692.375-3.486 1.344-.254.309-.415.666-.481 1.055a11.28 11.28 0 0 0-7.297 10.657 2.26 2.26 0 0 0-1.702 2.187 2.26 2.26 0 0 0 2.255 2.255h.152a10.78 10.78 0 0 0 5.901 7.743A20.4 20.4 0 0 0 14 28.406l-.072-.186a.81.81 0 0 0-.758-.52h-2.791a.81.81 0 0 0-.759.52l-.508 1.32a9.6 9.6 0 0 0-2.019.838l-1.294-.575a.81.81 0 0 0-.904.168L2.92 31.945a.81.81 0 0 0-.168.904l.575 1.294a9.6 9.6 0 0 0-.837 2.019l-1.32.508a.81.81 0 0 0-.521.758v2.792c0 .336.207.637.52.758l1.32.508c.202.703.482 1.38.838 2.02l-.575 1.293a.81.81 0 0 0 .168.905l1.974 1.973a.81.81 0 0 0 .904.168l1.294-.575c.64.356 1.316.636 2.02.837l.507 1.321c.121.314.423.52.759.52h2.79a.81.81 0 0 0 .76-.52l.507-1.32a9.6 9.6 0 0 0 2.02-.837l1.294.574c.307.137.666.07.904-.168l1.974-1.974a.81.81 0 0 0 .168-.904l-.02-.045h4.034a5.4 5.4 0 0 0 .174 2.709.813.813 0 0 0 1.347.322l2.937-2.937 1.41.378.377 1.41-2.936 2.936a.812.812 0 0 0 .322 1.347 5.385 5.385 0 0 0 5.51-1.316 5.4 5.4 0 0 0 1.488-4.849h8.707a.81.81 0 0 0 .808-.898 20.3 20.3 0 0 0-1.836-6.544c1.672.246 3.426-.302 4.643-1.518M20.607 4.924l.595 4.577a.812.812 0 1 0 1.611-.21l-.718-5.53c-.04-.31.053-.468.138-.572.317-.388 1.17-.666 2.284-.75 1.115.084 1.967.362 2.285.75.085.104.177.262.137.572l-.718 5.53a.813.813 0 0 0 1.611.21l.595-4.578a9.66 9.66 0 0 1 5.785 8.872v.008h-3.434V8.649a.813.813 0 0 0-1.625 0v5.154h-9.271V8.649a.813.813 0 0 0-1.625 0v5.154h-3.434v-.008a9.66 9.66 0 0 1 5.784-8.872m-7.486 11.134c0-.347.283-.63.63-.63h21.531a.631.631 0 0 1 0 1.26H13.752a.63.63 0 0 1-.63-.63m2.44 2.256h17.911a9.16 9.16 0 0 1-8.955 7.198 9.16 9.16 0 0 1-8.955-7.198m2.337 27.82-1.164-.517a.81.81 0 0 0-.756.05 8 8 0 0 1-2.34.97.81.81 0 0 0-.57.499l-.457 1.188h-1.675l-.458-1.188a.81.81 0 0 0-.57-.499 8 8 0 0 1-2.339-.97.81.81 0 0 0-.756-.05l-1.165.517-1.184-1.185.517-1.164a.81.81 0 0 0-.051-.756 8 8 0 0 1-.97-2.34.81.81 0 0 0-.499-.57l-1.187-.457v-1.676l1.188-.457a.81.81 0 0 0 .498-.57 8 8 0 0 1 .97-2.34.81.81 0 0 0 .05-.755l-.516-1.165 1.184-1.185 1.165.518c.245.109.528.09.756-.051a8 8 0 0 1 2.339-.97.81.81 0 0 0 .57-.498l.457-1.189h1.676l.457 1.189c.097.25.31.436.57.498a8 8 0 0 1 2.34.97c.228.14.51.16.755.05l1.165-.517 1.185 1.185-.517 1.164a.81.81 0 0 0 .05.756 8 8 0 0 1 .97 2.34c.063.26.249.474.499.57l1.188.457v1.676l-1.188.457a.81.81 0 0 0-.499.57 8 8 0 0 1-.97 2.34.81.81 0 0 0-.05.755l.517 1.165zm8.401-4.182a5.5 5.5 0 0 0-.894 1.177h-4.988a9.6 9.6 0 0 0 .64-1.643l1.32-.508a.81.81 0 0 0 .521-.758v-2.792a.81.81 0 0 0-.52-.758l-1.32-.508a9.6 9.6 0 0 0-.838-2.02l.575-1.293a.81.81 0 0 0-.169-.905l-1.973-1.973a.81.81 0 0 0-.905-.168l-1.294.575a9.6 9.6 0 0 0-1.476-.664 18.84 18.84 0 0 1 9.539-2.578c5.435 0 10.587 2.33 14.185 6.4l-7.051 7.05a5.4 5.4 0 0 0-5.352 1.366m7.33 2.393a3.78 3.78 0 0 1-.828 4.109 3.77 3.77 0 0 1-2.366 1.098l2.1-2.1a.81.81 0 0 0 .21-.784l-.62-2.316a.81.81 0 0 0-.575-.574l-2.316-.62a.81.81 0 0 0-.784.21l-2.1 2.099a3.77 3.77 0 0 1 1.098-2.366 3.78 3.78 0 0 1 4.11-.828c.303.124.65.054.882-.177l7.812-7.813a.81.81 0 0 0 .178-.882 3.83 3.83 0 0 1 .828-4.11 3.73 3.73 0 0 1 2.373-1.105l-2.107 2.107a.81.81 0 0 0-.21.785l.62 2.316c.076.28.294.499.575.574l2.316.62c.28.076.58-.004.784-.21l2.108-2.107a3.73 3.73 0 0 1-1.106 2.374 3.83 3.83 0 0 1-4.11.827.81.81 0 0 0-.881.178l-7.813 7.813a.81.81 0 0 0-.178.882m2.81-1.216 5.182-5.182a18.7 18.7 0 0 1 1.599 5.182zm-24.666-9.985a5.687 5.687 0 0 0-5.68 5.68 5.687 5.687 0 0 0 5.68 5.68 5.687 5.687 0 0 0 5.68-5.68 5.687 5.687 0 0 0-5.68-5.68m0 9.735a4.06 4.06 0 0 1-4.055-4.055 4.06 4.06 0 0 1 4.055-4.055 4.06 4.06 0 0 1 4.056 4.055 4.06 4.06 0 0 1-4.056 4.055"/></svg>