<svg xmlns="http://www.w3.org/2000/svg" width="50" height="50" fill="none"><g fill="#EE421D" clip-path="url(#a)"><path d="m46.183 32.002-8.237-2.746v-2.518q-.776.418-1.613.695v2.292a3.334 3.334 0 0 1-6.458 0v-2.258c-.223-.075-.452-.127-.67-.22a10 10 0 0 1-.942-.505v2.5l-8.24 2.756a6 6 0 0 0-1.133.531c-.132.08-.24.188-.363.277a5.5 5.5 0 0 0-.604.467 6 6 0 0 0-.417.492q-.191.21-.36.437a5.7 5.7 0 0 0-.459.873c-.022.054-.058.098-.079.152q.354.666.604 1.375h-.002a10 10 0 0 0-.602-1.375 8.14 8.14 0 0 0-7.168-4.583H9.23C4.15 30.604 0 34.69-.039 39.769c-.04 5.079 4.045 9.231 9.124 9.27h.146a8.79 8.79 0 0 0 6.938-3.395v3.52c0 .461.373.834.833.834h32.206c.46 0 .834-.373.834-.833V37.356a5.64 5.64 0 0 0-3.859-5.354M16.521 42.894H16.5a.9.9 0 0 0-.333.062 1 1 0 0 0-.373.354 7.32 7.32 0 0 1-6.563 4.146h-.125a7.63 7.63 0 0 1-7.458-7.125 7.5 7.5 0 0 1 2.104-5.77 7.7 7.7 0 0 1 5.48-2.334h.185a6.48 6.48 0 0 1 4.02 1.48 8.1 8.1 0 0 1 2.459 3.916.96.96 0 0 0 .27.417.93.93 0 0 0 .48.145h1.146l14.02-.02 2.48 2.604-2.417 2.312a.4.4 0 0 1-.25.084h-.104c0-.021-.042-.042-.125-.146l-1.021-1.063a.81.81 0 0 0-1.125-.02l-.562.541-1.271-1.333a.76.76 0 0 0-.542-.23h-.02a.84.84 0 0 0-.543.209l-1.333 1.27-.896-.937a.77.77 0 0 0-.562-.25H23.5a.84.84 0 0 0-.542.209L22 42.33l-.896-.958a.76.76 0 0 0-.541-.23h-.021a.78.78 0 0 0-.563.21l-1.666 1.603-.521-.02zm31.904 5.5h-4.842v-6.286a.803.803 0 1 0-1.602 0v6.277H17.794V44.52l.812.02h.021a.84.84 0 0 0 .542-.208l1.333-1.27.917.937c.3.308.791.317 1.104.02l.958-.895.896.937a.79.79 0 0 0 1.119.027l.006-.006 1.333-1.25 1.25 1.313c.302.314.8.331 1.125.041l.563-.541.458.479c.327.4.817.63 1.334.625h.062a2.02 2.02 0 0 0 1.292-.48l3.041-2.916a.7.7 0 0 0 .25-.542.85.85 0 0 0-.229-.583l-3.25-3.417a.82.82 0 0 0-.583-.229l-14.29.021q.095-.442.284-.852c.05-.11.104-.208.162-.323q.164-.297.373-.562c.063-.078.123-.159.192-.232q.27-.287.59-.518c.053-.04.101-.088.16-.123.287-.19.6-.342.927-.452l5.9-1.975 2.123-.709a4.93 4.93 0 0 0 9.083 0l8.015 2.684a4.03 4.03 0 0 1 2.758 3.825zM29.21 16.352h1.563a2.33 2.33 0 0 0-2.325-2.333h-.008a2.38 2.38 0 0 0-2.334 2.333h1.542a.66.66 0 0 1 .187-.48v-.02a.78.78 0 0 1 .605-.27.77.77 0 0 1 .77.766zM37.85 13.946a2.34 2.34 0 0 0-2.406 2.406h1.558a.777.777 0 0 1 .775-.78h.002a.777.777 0 0 1 .78.776v.004h1.558a2.34 2.34 0 0 0-2.267-2.406"/><path d="M2.854 19.477c.042.02.083.02.104.042.094.083.21.141.334.166.06.017.125.025.187.021.123-.012.244-.048.354-.104.042-.02.084-.02.125-.042v8.792a.815.815 0 0 0 .834.792h18.333c.44.008.802-.34.813-.78v-6.242a10 10 0 0 0 4.329 4.62q.456.278.941.506c.22.092.448.144.671.219 1.79.608 3.715.706 5.558.28.307-.072.594-.207.894-.314a10 10 0 0 0 1.613-.695q.718-.366 1.368-.844a10.13 10.13 0 0 0 3.792-6.48 3.884 3.884 0 0 0 3.188-4.458 3.94 3.94 0 0 0-.73-1.687v-.813C45.56 5.575 39.983 0 33.1.002a12.46 12.46 0 0 0-12.225 10.08L14.44 4.914a.733.733 0 0 0-.98 0L8.502 8.873v-1.73a.8.8 0 0 0-.787-.812H3.877a.814.814 0 0 0-.812.813v6.125l-2.73 2.187a.83.83 0 0 0-.293.563.8.8 0 0 0 .208.583zm13.044 8.063h-3.896v-6.938h3.896zm25.77-9.625a8.572 8.572 0 0 1-16.958 1.77 10 10 0 0 1-.166-1.77v-4.688h1.562a.6.6 0 0 0 .271-.042l5.167-1.937v2.77a.8.8 0 0 0 .791.772.9.9 0 0 0 .417-.105l5.583-3.5 1.125 1.709a.81.81 0 0 0 .667.333h1.542zm2.992-1.573a2.35 2.35 0 0 1-.556.885 2.4 2.4 0 0 1-.875.542v-4.396a2.33 2.33 0 0 1 1.431 2.969m-22.345-5.115A10.85 10.85 0 0 1 33.544 1.56 10.877 10.877 0 0 1 43.98 11.998a3.9 3.9 0 0 0-1.52-.313h-1.917l-1.334-2a.81.81 0 0 0-1.062-.229l-5.042 3.167v-2.5a.8.8 0 0 0-.333-.646.78.78 0 0 0-.708-.083l-6.105 2.291h-2.187a3.3 3.3 0 0 0-.792.084 2.9 2.9 0 0 0-.75.229 3 3 0 0 1 .084-.77m-.209 2.708c.16-.156.344-.29.542-.395.104-.07.217-.123.333-.167v4.396a2.6 2.6 0 0 1-.875-.542 2.36 2.36 0 0 1-.687-1.75 2.23 2.23 0 0 1 .687-1.542m.25 5.271v8.334h-4.854V19.83a.844.844 0 0 0-.812-.833h-5.48a.86.86 0 0 0-.812.833v7.709H5.544v-9.292l8.396-6.73 6.02 4.813a3.87 3.87 0 0 0 2.396 2.875M4.67 7.936h2.229v2.239l-2.23 1.796zM3.398 15.04l1.792-1.438h-.01l1.724-1.392 1.598-1.266 5.438-4.375 6.727 5.387a4 4 0 0 0-.021.5v.813c-.26.333-.452.716-.563 1.125L14.44 9.873a.8.8 0 0 0-.98 0L8.504 13.85l-1.683 1.356h-.006l-3.271 2.625-1.542-1.687z"/><path d="M33.108 21.802c-1.502 0-2.337-.583-2.337-.777h-1.563c0 1.331 1.667 2.335 3.894 2.335s3.9-1.004 3.9-2.335h-1.558c0 .194-.834.777-2.336.777M7.315 36.581a3.5 3.5 0 0 0-1.146-.229h-.086a3.41 3.41 0 0 0-3.416 3.333c-.03.91.316 1.792.958 2.438A3.36 3.36 0 0 0 6 43.185h.083q.327 0 .646-.062a3.36 3.36 0 0 0 1.709-.875 3.42 3.42 0 0 0 .125-4.833 3.6 3.6 0 0 0-1.248-.834m.041 4.48q-.01.01-.023.02a2 2 0 0 1-.604.396c-.02 0-.083.02-.125.02a.2.2 0 0 0-.104.022l-.083.02q-.176.044-.354.063h-.021a1.84 1.84 0 0 1-1.271-.562 1.8 1.8 0 0 1-.521-1.313c.015-.487.215-.95.563-1.292.347-.316.8-.495 1.27-.5h.042c.488.01.952.213 1.292.563a1.81 1.81 0 0 1-.06 2.562"/></g><defs><clipPath id="a"><path fill="#fff" d="M0 0h50v50H0z"/></clipPath></defs></svg>