<svg xmlns="http://www.w3.org/2000/svg" width="50" height="50" fill="none"><path fill="#EE421D" d="M45.19 37.28c-.39.004-.348-.015-.867.022V25.16a2.36 2.36 0 0 0-2.356-2.356H29.158V4.514l5.618 5.43c.318.308.5.737.5 1.179v8.96a.732.732 0 1 0 1.464 0v-8.96a3.12 3.12 0 0 0-.946-2.232l-6.86-6.63c-.154-.145-.45-.275-.742-.168L15.885 6.23V3.38c.009-1.246-1.109-2.33-2.41-2.255a2.26 2.26 0 0 0-2.255 2.255v4.42L8 8.88a3.1 3.1 0 0 0-2.115 2.941v25.462A6.05 6.05 0 0 0 0 43.322v3.724c0 1.011.823 1.834 1.834 1.834h46.332A1.836 1.836 0 0 0 50 47.046V42.09a4.816 4.816 0 0 0-4.81-4.81m0 1.465a3.35 3.35 0 0 1 3.345 3.345v.768h-7.104v-.768c.001-2.002 1.76-3.519 3.759-3.345M42.858 25.16V37.68a4.82 4.82 0 0 0-2.892 4.41v.768H29.157V24.27h12.81c.491 0 .891.4.891.892M12.685 3.379c0-.436.354-.79.79-.79.392-.058.92.25.945.79v3.344l-1.735.583zm-6.8 35.368v4.111H1.488a4.584 4.584 0 0 1 4.397-4.11m-4.42 8.3v-2.724h4.42v3.092H1.834a.37.37 0 0 1-.37-.369M7.35 11.821c0-.704.449-1.328 1.117-1.553l19.226-6.462v3.99l-15.974 5.37a.732.732 0 1 0 .466 1.389l15.508-5.213v3.726l-15.974 5.37a.732.732 0 0 0 .466 1.388l15.508-5.213v3.726l-15.974 5.37a.732.732 0 1 0 .466 1.388l15.508-5.212v3.726l-15.974 5.37a.733.733 0 0 0 .466 1.388l15.507-5.213v3.727l-9.974 3.352a.732.732 0 1 0 .467 1.389l9.507-3.196v16.986h-6.327v-7.61a1.57 1.57 0 0 0-.625-1.26 1.57 1.57 0 0 0-1.382-.264l-6.817 1.903a1.81 1.81 0 0 0-1.321 1.741v5.49H7.35zm5.335 30.103c0-.153.103-.289.25-.33l2.625-.733v6.553h-2.875zm4.34 5.49v-6.962l2.727-.761a.11.11 0 0 1 .102.02q.046.035.046.092v7.61zm12.132 0v-3.092h10.809v3.092zm19.378-.369a.37.37 0 0 1-.369.369h-6.735v-3.092h7.104z"/><path fill="#EE421D" d="M11.952 35.68a.7.7 0 0 0 .234-.039l2.719-.914a.732.732 0 1 0-.467-1.388l-2.72.914a.732.732 0 0 0 .234 1.427M32.365 30.31h7.183c.68 0 1.235-.554 1.235-1.235v-1.763c0-.68-.554-1.235-1.235-1.235h-7.183c-.681 0-1.235.554-1.235 1.235v1.763c0 .681.554 1.235 1.235 1.235m.23-2.768h6.723v1.304h-6.723zM32.365 35.88h7.183c.68 0 1.235-.554 1.235-1.236v-1.762c0-.682-.554-1.236-1.235-1.236h-7.183c-.681 0-1.235.554-1.235 1.236v1.763c0 .68.554 1.235 1.235 1.235m.23-2.769h6.723v1.304h-6.723zM32.365 41.506h2.376c.68 0 1.235-.554 1.235-1.235v-1.763c0-.681-.554-1.235-1.235-1.235h-2.376c-.681 0-1.235.554-1.235 1.235v1.763c0 .68.554 1.235 1.235 1.235m.23-2.769h1.916v1.304h-1.916z"/></svg>