<svg width="34" height="34" viewBox="0 0 34 34" fill="none" xmlns="http://www.w3.org/2000/svg">
<path d="M3.1875 28.6875H25.5V33.4688H3.1875V28.6875Z" fill="#F2B9A1"/>
<path d="M20.7188 28.6875H26.0312V25.627C26.0311 24.4994 25.7369 23.3914 25.1775 22.4124C24.4888 21.207 23.4312 20.2547 22.1606 19.6956L20.0812 19.0113L17 18.0625V16.2887H11.6875V18.0625L8.60625 19.0113L6.52906 19.6956C5.2584 20.2547 4.20084 21.207 3.51209 22.4124C2.952 23.3912 2.657 24.4992 2.65625 25.627V28.6875H7.96875V33.4688H20.7188V28.6875Z" fill="#004C9D"/>
<path d="M25.1775 22.4124C24.4888 21.207 23.4312 20.2547 22.1606 19.6956L20.0812 19.0113L17 18.0625V16.2887H13.2812V18.0625L10.2 19.0113L8.12281 19.6956C6.85215 20.2547 5.79459 21.207 5.10584 22.4124C4.54575 23.3912 4.25075 24.4992 4.25 25.627V28.6875H7.96875V33.4688H20.7188V28.6875H26.0312V25.627C26.0311 24.4994 25.7369 23.3914 25.1775 22.4124Z" fill="#0059BE"/>
<path d="M14.3438 20.7188C15.3958 20.0173 16.2986 19.1146 17 18.0625V16.2887H11.6875V18.0625C12.3889 19.1146 13.2917 20.0173 14.3438 20.7188Z" fill="#D08D78"/>
<path d="M7.48744 7.96875C7.40433 8.47002 7.42513 8.98301 7.54853 9.47591L7.86728 10.7557H20.8186L20.8845 10.4938C21.0893 9.66664 21.2072 8.82037 21.2362 7.96875H7.48744Z" fill="#383838"/>
<path d="M9.08119 7.96875C8.99808 8.47002 9.01888 8.98301 9.14228 9.47591L9.46103 10.7557H20.8186L20.8845 10.4938C21.0893 9.66664 21.2072 8.82037 21.2362 7.96875H9.08119Z" fill="#4C4C4C"/>
<path d="M9.08916 10.625H8.5C8.07731 10.625 7.67193 10.7929 7.37305 11.0918C7.07416 11.3907 6.90625 11.7961 6.90625 12.2188C6.90625 12.6414 7.07416 13.0468 7.37305 13.3457C7.67193 13.6446 8.07731 13.8125 8.5 13.8125H9.47378" fill="#D08D78"/>
<path d="M16.2902 7.37959C16.753 7.07088 17.2969 6.90617 17.8532 6.90625C18.0689 6.90632 18.2791 6.97424 18.454 7.10038C18.629 7.22651 18.7598 7.40448 18.828 7.60909L19.1521 8.58181C19.4861 9.58318 19.6564 10.6319 19.6562 11.6875C19.6562 13.0965 19.0965 14.4477 18.1003 15.444C17.104 16.4403 15.7527 17 14.3438 17C12.9348 17 11.5835 16.4403 10.5872 15.444C9.59096 14.4477 9.03125 13.0965 9.03125 11.6875C9.03113 10.6319 9.20137 9.58318 9.53541 8.58181L9.85947 7.60909C9.92768 7.40448 10.0585 7.22651 10.2335 7.10038C10.4084 6.97424 10.6186 6.90632 10.8343 6.90625C11.3906 6.90617 11.9345 7.07088 12.3973 7.37959C12.9737 7.76374 13.651 7.96872 14.3438 7.96875C15.0365 7.96872 15.7138 7.76374 16.2902 7.37959Z" fill="#D08D78"/>
<path d="M14.875 16.9734C16.1854 16.8417 17.4002 16.228 18.2836 15.2513C19.1671 14.2746 19.6563 13.0045 19.6563 11.6875C19.6564 10.6319 19.4861 9.58318 19.1521 8.58181L18.828 7.60909C18.7598 7.40448 18.629 7.22651 18.454 7.10038C18.2791 6.97424 18.0689 6.90632 17.8532 6.90625C17.2969 6.90617 16.753 7.07088 16.2903 7.37959C15.7138 7.76377 15.0365 7.96877 14.3438 7.96877C13.651 7.96877 12.9737 7.76377 12.3973 7.37959C12.1244 7.20022 11.8224 7.06987 11.5048 6.99444C11.3689 7.04888 11.2464 7.13197 11.1455 7.23804C11.0447 7.34411 10.9679 7.47067 10.9204 7.60909L10.5963 8.58181C10.2628 9.58327 10.0931 10.632 10.0938 11.6875C10.0937 13.0045 10.5829 14.2746 11.4664 15.2513C12.3498 16.228 13.5646 16.8417 14.875 16.9734Z" fill="#F2B9A1"/>
<path d="M7.4375 7.96875L8.42509 8.95634C8.8134 9.34429 9.33979 9.5623 9.88869 9.5625C10.025 9.56264 10.161 9.54912 10.2946 9.52213L11.1871 9.34363C12.2265 9.13591 13.2838 9.03128 14.3438 9.03125C15.4032 9.0313 16.46 9.13593 17.4988 9.34363L18.3929 9.52213C18.5265 9.54912 18.6625 9.56264 18.7988 9.5625C19.3477 9.5623 19.8741 9.34429 20.2624 8.95634L21.25 7.96875L20.8335 5.25938C20.653 4.09046 20.0601 3.02475 19.1621 2.25498C18.2641 1.48521 17.1203 1.06222 15.9375 1.0625H12.75C11.5668 1.06255 10.4227 1.48607 9.52471 2.25645C8.62669 3.02682 8.03405 4.09316 7.854 5.26256L7.4375 7.96875Z" fill="#A5BADB"/>
<path d="M9.44708 5.26256L9.24308 6.5875C9.17715 7.01531 9.21296 7.45265 9.34763 7.86403C9.4823 8.27541 9.71202 8.64927 10.0182 8.95528C10.2303 9.1647 10.4853 9.32565 10.7656 9.42703L11.1864 9.34256C13.2697 8.92603 15.4149 8.92603 17.4982 9.34256L18.3923 9.52106C18.5259 9.54806 18.6618 9.56158 18.7981 9.56144C19.347 9.56124 19.8734 9.34323 20.2617 8.95528L21.2493 7.96875L20.8328 5.25938C20.6523 4.09046 20.0594 3.02475 19.1614 2.25498C18.2634 1.48521 17.1196 1.06222 15.9368 1.0625H14.3431C13.1598 1.06233 12.0156 1.48578 11.1176 2.25619C10.2195 3.0266 9.62692 4.09307 9.44708 5.26256Z" fill="#C1CFE8"/>
<path d="M19.5975 10.625H20.1867C20.6094 10.625 21.0147 10.7929 21.3136 11.0918C21.6125 11.3907 21.7804 11.7961 21.7804 12.2188C21.7804 12.6414 21.6125 13.0468 21.3136 13.3457C21.0147 13.6446 20.6094 13.8125 20.1867 13.8125H19.2129" fill="#D08D78"/>
<path d="M21.7812 33.4688L21.0981 29.3707L19.125 27.0938H7.96875L6.90625 33.4688H21.7812Z" fill="#C1CFE8"/>
<path d="M9.19145 30.3827L8.67773 33.4688H21.7821L21.0989 29.3707L20.0465 28.1563H11.8206C11.1898 28.1562 10.5794 28.3799 10.0979 28.7876C9.61652 29.1953 9.29531 29.7605 9.19145 30.3827Z" fill="#D7E0EF"/>
<path d="M8.5 27.0938L6.375 19.125L8.5 18.5938L10.625 27.0938" fill="#95AFD1"/>
<path d="M16.4688 6.92431V4.25H12.2188V6.92431" fill="#0059BE"/>
<path d="M13.8125 20.7188H14.875V27.0938H13.8125V20.7188Z" fill="#004C9D"/>
<path d="M15.733 6.90625H12.9545C11.0647 6.90633 9.1922 7.26694 7.4375 7.96875L8.42509 8.95634C8.8134 9.34429 9.33979 9.5623 9.88869 9.5625C10.025 9.56265 10.161 9.54912 10.2946 9.52212L11.1871 9.34362C13.2704 8.92709 15.4155 8.92709 17.4988 9.34362L18.3929 9.52212C18.5265 9.54912 18.6625 9.56265 18.7988 9.5625C19.3477 9.5623 19.8741 9.34429 20.2624 8.95634L21.25 7.96875C19.4953 7.26694 17.6228 6.90633 15.733 6.90625Z" fill="#D7E0EF"/>
<path d="M17 18.0625V16.8146C16.3933 17.1681 15.7222 17.3971 15.0259 17.4883C14.3297 17.5795 13.6223 17.5311 12.945 17.3459C12.8611 17.321 12.7726 17.316 12.6865 17.3312C12.6003 17.3463 12.5189 17.3813 12.4485 17.4332C12.3781 17.4851 12.3208 17.5527 12.2809 17.6305C12.241 17.7084 12.2198 17.7944 12.2188 17.8819C12.2182 17.9999 12.2538 18.1152 12.3208 18.2123C12.9466 19.1069 13.7206 19.8881 14.6094 20.5222C15.5478 19.8529 16.3577 19.0196 17 18.0625Z" fill="#F2B9A1"/>
<path d="M17 18.0625C16.2986 19.1146 15.3958 20.0173 14.3438 20.7188L16.4688 23.375L19.0262 18.6862" fill="#A5BADB"/>
<path d="M11.6883 18.0625C12.3897 19.1146 13.2925 20.0173 14.3445 20.7188L12.2195 23.375L9.66211 18.6862" fill="#A5BADB"/>
<path d="M20.1875 27.0938L22.3125 19.125L20.1875 18.5938L18.0625 27.0938" fill="#95AFD1"/>
<path d="M31.3429 20.7188C31.3429 21.2071 31.2467 21.6907 31.0598 22.1419C30.873 22.593 30.599 23.003 30.2537 23.3483C29.9084 23.6936 29.4984 23.9675 29.0473 24.1544C28.5961 24.3413 28.1125 24.4375 27.6242 24.4375C27.1658 24.4381 26.7115 24.3516 26.2854 24.1825L17.9714 32.4966C17.8318 32.6361 17.6662 32.7468 17.4839 32.8223C17.3016 32.8978 17.1062 32.9367 16.9089 32.9367C16.7115 32.9367 16.5161 32.8978 16.3338 32.8223C16.1515 32.7468 15.9859 32.6361 15.8464 32.4966C15.7068 32.357 15.5961 32.1914 15.5206 32.0091C15.4451 31.8268 15.4062 31.6314 15.4063 31.4341C15.4063 31.2367 15.4451 31.0413 15.5206 30.859C15.5961 30.6767 15.7068 30.5111 15.8464 30.3716L24.1604 22.0575C23.9913 21.6314 23.9048 21.1771 23.9054 20.7188C23.9054 19.7325 24.2972 18.7866 24.9946 18.0892C25.692 17.3918 26.6379 17 27.6242 17C27.9416 16.9997 28.2577 17.0407 28.5645 17.1222L26.5617 19.125L27.0929 21.25L29.2179 21.7813L31.2207 19.7784C31.3022 20.0852 31.3432 20.4013 31.3429 20.7188Z" fill="#595959"/>
<path d="M29.2192 21.7811L27.0942 21.2499L15.8477 32.4964C15.9871 32.6362 16.1527 32.7471 16.335 32.8227C16.5173 32.8984 16.7128 32.9373 16.9102 32.9373C17.1075 32.9373 17.303 32.8984 17.4853 32.8227C17.6676 32.7471 17.8332 32.6362 17.9727 32.4964L26.2867 24.1824C26.7128 24.3515 27.1671 24.438 27.6255 24.4374C28.1138 24.4374 28.5974 24.3412 29.0486 24.1543C29.4998 23.9674 29.9097 23.6935 30.255 23.3482C30.6003 23.0029 30.8743 22.5929 31.0611 22.1417C31.248 21.6906 31.3442 21.207 31.3442 20.7186C31.3445 20.4012 31.3035 20.0851 31.222 19.7783L29.2192 21.7811Z" fill="#4C4C4C"/>
</svg>
