<svg width="34" height="34" viewBox="0 0 34 34" fill="none" xmlns="http://www.w3.org/2000/svg">
<path d="M16.9998 34C26.3886 34 33.9996 26.3888 33.9996 17C33.9996 7.61116 26.3886 0 16.9998 0C7.61108 0 0 7.61116 0 17C0 26.3888 7.61108 34 16.9998 34Z" fill="#F0F5FF"/>
<path d="M16.9998 0C26.3735 0 33.9996 7.62618 33.9996 17C33.9996 26.3737 26.3735 33.9999 16.9998 33.9999V0Z" fill="#D8F1FB"/>
<path d="M7.77539 16.9999C7.77539 18.2829 8.03426 19.5249 8.54464 20.6915C8.86602 21.426 9.72198 21.7608 10.4564 21.4395C11.1909 21.1182 11.5257 20.2622 11.2043 19.5277C10.8555 18.7303 10.6785 17.8797 10.6785 16.9998C10.6785 13.6513 13.2956 10.904 16.5915 10.692L15.9746 11.309C15.4077 11.8758 15.4077 12.7949 15.9746 13.3618C16.5414 13.9286 17.4605 13.9286 18.0274 13.3618L21.1371 10.2521C21.704 9.68528 21.704 8.76612 21.1371 8.19922L18.0274 5.08948C17.4607 4.52277 16.5417 4.52239 15.9746 5.08948C15.4077 5.65629 15.4077 6.57545 15.9746 7.14235L16.6149 7.7827C11.7064 7.98603 7.77539 12.0423 7.77539 16.9999Z" fill="#00A8ED"/>
<path d="M18.0264 5.08953C17.743 4.80618 17.3715 4.6644 17 4.66431V13.7869C17.3715 13.7869 17.743 13.6452 18.0264 13.3618L21.1361 10.252C21.703 9.68523 21.703 8.76607 21.1361 8.19917L18.0264 5.08953Z" fill="#008EED"/>
<path d="M26.2244 17C26.2244 15.717 25.9655 14.475 25.4552 13.3084C25.1338 12.5739 24.2778 12.2391 23.5434 12.5605C22.8089 12.8818 22.4741 13.7377 22.7955 14.4722C23.1443 15.2697 23.3213 16.1202 23.3213 17.0001C23.3213 20.3486 20.7042 23.096 17.4083 23.3079L18.0252 22.691C18.5921 22.1242 18.5921 21.205 18.0252 20.6381C17.4584 20.0713 16.5393 20.0713 15.9724 20.6381L12.8627 23.7478C12.2958 24.3146 12.2958 25.2338 12.8627 25.8007L15.9724 28.9104C16.5391 29.4771 17.4581 29.4775 18.0252 28.9104C18.5921 28.3436 18.5921 27.4245 18.0252 26.8576L17.3849 26.2172C22.2934 26.0139 26.2244 21.9576 26.2244 17Z" fill="#00A8ED"/>
<path d="M18.0263 28.9102C18.5932 28.3434 18.5932 27.4243 18.0263 26.8574L17.3859 26.217C22.2945 26.0139 26.2256 21.9576 26.2256 17C26.2256 15.717 25.9667 14.475 25.4563 13.3084C25.1349 12.5739 24.279 12.2391 23.5446 12.5605C22.8101 12.8818 22.4752 13.7377 22.7966 14.4722C23.1455 15.2697 23.3225 16.1202 23.3225 17.0001C23.3225 20.3486 20.7053 23.096 17.4094 23.3079L18.0264 22.691C18.5933 22.1242 18.5933 21.205 18.0264 20.6381C17.7429 20.3547 17.3714 20.213 17 20.213V29.3356C17.3713 29.3355 17.7428 29.1938 18.0263 28.9102Z" fill="#008EED"/>
</svg>
